<?xml version="1.0" encoding="utf-8"?>
<!-- Generator: Adobe Illustrator 26.0.2, SVG Export Plug-In . SVG Version: 6.00 Build 0)  -->
<svg version="1.1" id="Layer_1" xmlns="http://www.w3.org/2000/svg" xmlns:xlink="http://www.w3.org/1999/xlink" x="0px" y="0px"
	 viewBox="0 0 595.28 841.89" style="enable-background:new 0 0 595.28 841.89;" xml:space="preserve">
<style type="text/css">
	.st0{fill:#FFFFFF;}
</style>
<g>
	<g>
		<path class="st0" d="M374.32,712.89c-2.35,0-4.69,0-7.04,0c0-0.27,0-0.43,0-0.48c-0.26-2.59,0.37-4.26,3.33-4.08
			c4.09,0.25,6.57-2.72,10.27-5.84c-2.34,0.64-3.55,0.97-4.77,1.3c1.02-1.57,2.39-2.19,3.72-2.88c3.13-1.62,6.83-1.87,9.47-4.76
			c1.9-2.07,1.45-3.26-0.92-5.09c0,1.82,0,2.93,0,4.04c-0.18,0.01-0.37,0.02-0.55,0.02c-0.42-1.25-0.84-2.49-1.42-4.22
			c-1.09,1.8-1.87,2.98-2.55,4.23c-0.54,1-0.94,2.08-1.41,3.13c-1.21-0.65-2.59-1.09-3.59-2c-0.94-0.85-1.26-2.56-2.25-3.21
			c-1.23-0.8-2.75-3.84-3.89-1.71c1.44,3.05,2.49,5.09,3.35,7.22c0.16,0.41-0.26,1.42-0.66,1.63c-0.42,0.22-1.27-0.01-1.7-0.36
			c-1.73-1.36-3.37-2.84-5.18-4.39c-0.88,1.13-1.59,2.04-1.61,2.07c-1.66-0.25-2.73-0.78-3.41-0.45c-3.2,1.57-6.3,3.38-9.68,5.25
			c0.17,0.74,0.42,1.86,0.82,3.63c-3.6-1.62-6.74-3.03-10.24-4.6c-2.24,0.93-5.21,2.15-8.17,3.38c0.12,0.33,0.23,0.66,0.35,0.99
			c-1.14,0-3-0.47-3.32,0.07c-2.56,4.28-6.19,1.32-9.28,1.81c-1.81,0.29-3.56,0.95-5.33,1.47c-0.33,0.1-0.63,0.29-1.11,0.51
			c-0.43-1.2-0.8-2.26-1.43-4.03c-2.9,1.19-5.47,2.71-8.22,3.22c-2.09,0.39-4.42-0.39-6.59-0.92c-0.32-0.08-0.62-1.77-0.36-2.49
			c0.3-0.82,1.14-1.57,1.92-2.01c0.75-0.42,1.73-0.39,3.44-0.71c-2.16-1.5-3.8-2.21-4.8-3.47c-0.85-1.07-1.25-2.78-1.27-4.21
			c-0.01-0.55,1.56-1.54,2.46-1.61c3.17-0.25,6.4-0.5,9.55-0.17c2.95,0.32,4.91,0.07,4.28-3.86c5.4,2.45,11.05-3.64,15.64,2.38
			c0.61-1.99,0.96-3.13,1.01-3.28c3.72-1.89,6.66-3.39,9.96-5.07c-1.54,8.63-0.81,11.57,3.41,10.74c-3.15-3.44-2.62-6.97-0.13-10.85
			c0.76,0.75,1.78,1.33,2.15,2.2c1.41,3.28,2.09,2.17,3.83,0.01c1.99-2.47,4.62-5.1,7.44-5.94c4.5-1.34,9.39-1.27,14.21-1.81
			c0.59,1.32,1.15,2.58,1.82,4.09c1.18-2.18,2.79-3.32,6.22-4.8c0.43-0.18,0.62-1.03,1.04-1.16c1.74-0.54,3.53-0.92,5.3-1.35
			c0.29-0.07,0.59-0.06,1.13-0.11c-0.41-1.27-0.74-2.29-1.35-4.19c3.4-0.27,6.27-0.5,8.62-0.69c3.81-3.03,7.54-6.01,10.01-7.98
			c1.19-3.93,2.02-6.65,2.79-9.21c-0.92-0.58-2.02-1.28-2.61-1.64c3.7-5.4,2.1-11.07,1.08-15.91c-1.51-7.21-8.91-7.06-14.34-9.64
			c0.93,2.8,1.86,5.6,2.94,8.88c-5.78-4.78-7.09-9.25-5.24-15.8c0.45-1.61,0.36-3.43,0.3-5.14c-0.07-2.23-0.34-4.46-0.54-6.74
			c-0.51-0.07-1.2-0.18-1.89-0.28c0.03-0.53,0.06-1.07,0.09-1.6c3.96,0.25,7.93,0.51,11.46,0.73c-0.12-2.33,0.33-4.73-0.44-6.6
			c-2.08-5.08-2.28-4.99-1.43-5.83c0.58,1.14,1.14,2.27,2.23,4.42c1.46-1.93,2.34-3.77,3.76-4.74c1.11-0.75,3.06-0.9,4.35-0.45
			c3.4,1.19,6.64,2.85,9.95,4.32c0.36-0.4,0.73-0.8,1.09-1.2c-4.78-2.55-6.71-6.23-5.26-10.47c3.75-1.68,6.96-3.12,10.18-4.57
			c-0.03-0.17-0.07-0.34-0.1-0.51c-3.19,0-6.38,0-9.94,0c0.08-1.36,0.16-2.58,0.25-4.03c1.5,0.27,2.48,0.44,3.46,0.62
			c0.16-1.26,0.31-2.48,0.5-4.03c-2.33-0.56-4.61-1.1-6.89-1.65c0-0.32,0-0.64,0-0.95c1.52-0.38,3.04-0.76,4.33-1.08
			c-2.71-1.69-5.52-3.44-8.62-5.36c-3.85,0.33-8.99,4.77-11.67-2.93c-0.11-0.31-0.64-0.44-0.93-0.71
			c-4.5-4.28-8.99-8.57-13.56-12.93c0.06-0.05-0.47,0.45-0.32,0.31c-6.06-3.2-10.13-8-12.99-14.54c-1.81,1.47-3.37,2.73-4.94,4.01
			c1.57,1.79,2.85,3.24,4.48,5.08c-9.48,4.15-18.56,8.12-27.64,12.1c0.09,0.33,0.18,0.65,0.28,0.98c2-0.31,4-0.77,6.01-0.91
			c5.09-0.35,9.67-5.42,15.41-1.22c1.73,1.27,5.03,0.17,7.61,0.18c0.16,0,0.32,0.16,0.52,0.26c-0.77,0.23-1.48,0.44-2.19,0.65
			c0.37,0.21,0.75,0.42,1.12,0.63c-0.74,2.25-1.48,4.51-2.4,7.3c-1.23-2.03-1.83-3.01-1.98-3.27c-2.47,0.87-4.28,1.5-6.08,2.13
			c-0.62-1.97-1.24-3.94-1.86-5.9c-0.36-0.35-0.72-0.69-1.08-1.04c-0.53,1.17-1.07,2.34-1.14,2.51c-2-0.39-3.44-0.97-4.84-0.89
			c-4.36,0.23-8.7,0.71-13.6,1.14c3.54-4.55,9.3-5.43,10.09-11.34c-0.56,0.04-1.1,0.07-1.1,0.07c2.41-5.75,4.92-11.38,7.1-17.14
			c1.09-2.89,1.7-6,2.28-9.07c0.14-0.75-0.49-2.08-1.13-2.46c-0.65-0.38-2.04-0.25-2.6,0.26c-1.35,1.24-3.32,2.32-2.02,5.01
			c0.34,0.71-0.46,2.02-0.93,3.79c-5.22-6.49,0.77-11.41-0.6-16.95c2.93,0.82,4.97,1.39,6.81,1.91c-1.14-2.38-2.34-4.88-3.54-7.38
			c0.48-0.31,0.95-0.62,1.43-0.93c1.54,1.83,3.09,3.67,4.86,5.76c0.65-1.36,1.19-2.47,1.69-3.5c0.94,0.08,1.83,0.16,2.46,0.21
			c-1.89-3.08-3.69-6.01-5.49-8.94c4.63,1.11,7.41,4.81,10.71,7.75c-1.01,0.79-2.27,1.58-2.2,1.75c0.55,1.32,1.12,2.85,2.15,3.68
			c2.05,1.66,4.4,2.92,6.63,4.35c-0.14,0.48-0.27,0.95-0.41,1.43c-1.04-0.19-2.17-0.18-3.12-0.62c-3.15-1.43-4.41-0.74-4.63,2.75
			c3.35-1.13,3.31-1.1,4.92,2.04c0.34,0.67,1.11,1.15,1.76,1.58c1.35,0.91,2.76,1.74,3.21,2.02c2.87-0.74,5.1-1.31,7.62-1.95
			c1.89,3.67,3.74,7.25,5.59,10.83c0.51-0.26,1.02-0.52,1.54-0.78c-0.9-2.06-1.7-4.19-2.73-6.18c-1.22-2.35-2.65-4.59-3.99-6.87
			l-0.11,0.1c5.81-0.78,11.06,2.54,17.22,1.92c4.25-0.43,7.57-0.11,10.55-3.76c1.37-1.68,3.52-2.92,5.55-3.62
			c1.12-0.38,2.9,0.5,4.06,1.32c1.66,1.18,2.86,3.08,4.55,4.21c4.86,3.25,9.56,2.35,13.74-1.39c0.47-1.16,1.01-3,1.86-3.17
			c5.3-1.05,10.71-1.46,15.99-2.6c4.15-0.9,8.17-2.48,12.19-3.92c0.71-0.25,1.7-1.32,1.67-1.96c-0.39-7.62,0.96-15.48-2.79-22.68
			c-0.39-0.75-0.27-2.61,0.22-2.93c4.44-2.93,2.44-6.84,1.45-10.38c-1.9-6.8-6.08-13.08-3.36-20.47c-4.17-2-7.42-4.83-11.88-3.97
			c-2.24,0.43-4.57,0.48-6.86,0.51c-2.65,0.04-5.96-1.21-7.83,0.02c-6.73,4.44-15.59,3.23-21.58,9.51c-1.73,1.81-3.31,0.67-3.3-2.14
			c0.01-1.48-0.38-2.96-0.66-4.91c-1.32,0.97-2,1.48-3.43,2.53c0-4.38,0-8.04,0-11.69c-0.37-0.07-0.73-0.13-1.1-0.2
			c-2.17,4.8-4.01,9.81-6.6,14.35c-2.56,4.48-5.88,8.49-8.87,12.7c-0.36-0.27-0.72-0.53-1.08-0.8c0.82-1.57,1.65-3.14,2.8-5.35
			c-1.38,0.6-2.12,0.92-2.04,0.88c-2.67-4.61-5.21-8.99-7.88-13.58c-1.09,2.68-1.92,4.72-2.75,6.76c-0.35-0.12-0.69-0.24-1.04-0.36
			c0.22-2.15,0.45-4.31,0.67-6.46c-0.22-0.44-0.44-0.88-0.66-1.32c-1.72,5.26-4.96,2.7-7.64,2.96c-0.9,0.09-1.9-0.32-2.71-0.03
			c-4.1,1.47-5.26-1.33-6.98-4.39c-2.07-3.7-1.41-8.81-5.53-11.41c-2.3-1.45-4.44-3.16-6.74-4.82c1.91,3.19,3.69,6.15,5.46,9.1
			c-0.55,0.45-1.09,0.89-1.64,1.34c-4.68-5.47-9.17-11.14-14.08-16.37c-5.01-5.34-10.14-10.67-17.41-12.83
			c1.66,2.67,3.6,5.01,5.5,7.38c3.72,4.64,7.41,9.29,11.12,13.94c-2.46-1.83-4.93-3.66-7.39-5.48c-0.22,0.23-0.44,0.46-0.65,0.69
			c3.26,3.3,6.51,6.59,9.77,9.89c0.71,0.88,1.42,1.75,2.13,2.63c1.22,0.18,2.44,0.35,3.81,0.55c0,1.45,0,2.86,0,4.28
			c-0.76,0.57-1.52,1.13-2.29,1.7l0.15-0.12c-0.45-0.12-1.07-0.08-1.33-0.38c-3.69-4.27-7.3-8.61-11-12.88
			c-3.07-3.55-6.23-7.03-9.34-10.54c0.96,0.57,1.92,1.14,2.89,1.71c0.26-0.35,0.52-0.71,0.78-1.06c-2.8-2.54-5.59-5.07-8.39-7.61
			c-0.35,0.41-0.71,0.82-1.06,1.23c1.99,1.97,3.99,3.94,5.98,5.91c-2.14-1.29-4.28-2.58-7.29-4.39c1.38,6.27,7.59,6.78,9.64,11.93
			c-3.6-2.3-6.69-4.27-10.24-6.54c-1.48,13.01-5.03,25.25-8.71,37.35c-1.68-1.59-2.84-2.69-4.11-3.89c1.65-2.92,4.73-5.39,3.25-8.36
			c-3.04-0.54-6.65-0.18-7.32-1.48c-2.44-4.75,1.99-7.39,4.4-10.72c-0.73-0.71-1.39-1.35-2.2-2.14c3.62-6.27,7.1-12.3,11.05-19.14
			c-5.26,2.4-9.2,4.21-12.79,5.85c-0.9-1.8-1.21-3.39-2.13-4.06c-4.96-3.66-5.01-4.02,0.09-7.38c0.44-0.29,0.87-0.62,1.23-1
			c4.11-4.34,8.13-8.8,12.38-12.99c1.08-1.07,2.83-1.66,4.35-1.9c2.78-0.43,6.23,0.8,6.78-3.93c0.04-0.31,1.57-0.42,2.4-0.62
			c0.14-1.03,0.09-2.18,0.46-3.15c1.23-3.22,2.58-6.39,3.94-9.56c0.25-0.58,0.78-1.02,1.14-1.55c1.24-1.86,2.84-3.59,3.58-5.65
			c0.81-2.26,1.88-4.99-1.16-6.85c-0.49-0.3-0.32-1.72-0.51-2.61c-0.29-1.42-0.6-2.84-0.95-4.25c-0.25-1.03-0.47-2.09-0.9-3.03
			c-0.86-1.87-1.41-4.4-2.87-5.38c-4.39-2.94-9.12-5.35-13.84-7.71c-0.45-0.22-2.36,1.24-2.49,2.11c-0.38,2.51-0.31,5.12-0.17,7.68
			c0.06,1.11,0.57,2.28,1.13,3.26c1.42,2.5,3.48,4.75,4.32,7.43c0.5,1.61-0.43,4.08-1.37,5.76c-2.54,4.5-7.25,3.64-11.23,4.15
			c-1.68,0.21-3.51-1.21-5.32-1.67c-1.83-0.46-3.72-0.83-5.59-0.91c-3.55-0.14-7.24,0.69-10.6-1.55c4.53-0.51,8.73-0.99,12.94-1.44
			c2.72-0.29,5.59-0.48,6.86-3.5c0.84-1.99,1.07-4.27,1.57-6.39c1.04-0.26,2.48-0.61,3.91-0.96c-0.05-0.58-0.11-1.16-0.16-1.74
			c-1.75,0-3.53-0.22-5.24,0.05c-2.78,0.44-5.44,1.13-6.86-2.52c-0.26-0.66-1.12-1.08-1.73-1.57c-5.22-4.11-11.09-1.37-16.66-1.74
			c-2.45-0.16-5.09-0.23-7.2-1.29c-0.85-0.43-1.08-3.62-0.59-5.22c0.91-3,10.18-8.26,13-7.09c3.48,1.45,4.66-1.23,6.45-2.85
			c1.04-0.94,1.64-2.39,2.43-3.6c-0.95-0.48-1.93-0.98-2.91-1.48c0.07-0.3,0.14-0.59,0.22-0.89c1.11-0.27,2.22-0.54,3.88-0.94
			c-0.71-1.39-1.01-2.64-1.76-3.36c-2.92-2.78-3.26-4.46-0.6-7.02c0.95-0.92,2.66-0.97,4.46-1.55c-1.56-1.42-2.82-2.58-4.28-3.91
			c2.62-2.35,4.73-4.49,2.07-7.73c-1.59-1.94-1.86-5.32-5.16-5.37c-3.17-0.05-5.35-1.13-6.55-4.59c-0.42-1.21-2.54-2.25-4.01-2.47
			c-2.25-0.34-4.64,0.39-6.91,0.15c-3.04-0.33-7.87-4.69-7.16-6.8c0.74-2.19,3.09-3.84,4.87-5.57c0.71-0.68,1.76-1.14,2.72-1.31
			c0.91-0.16,1.91,0.18,2.87,0.32c3.69,0.51,7.38,1.09,11.08,1.45c0.41,0.04,0.93-1.12,1.4-1.72c0.93-1.2,1.92-2.35,2.76-3.6
			c0.63-0.93,1.62-2.16,1.43-2.98c-0.21-0.9-1.54-1.63-2.52-2.16c-0.75-0.41-1.71-0.38-2.85-0.61c0.38-1.32,0.69-2.42,1-3.53
			c-1.28-0.26-2.35-0.47-3.7-0.74c0.98-1.92,1.79-3.47,2.61-5.07c-2.94,0.67-5.58,1.28-8.65,1.98c-0.56-1.77-1.15-3.61-1.79-5.65
			c2.1-1,3.84-1.83,5.78-2.75c-0.6-0.71-1.13-1.35-1.73-2.07c2.71-0.81,5.76-0.87,7.49-2.49c1.75-1.63,2.18-4.8,3.4-7.84
			c0.73-0.21,2.7-0.45,4.39-1.3c3-1.51,5.91-3.27,8.72-5.14c3.85-2.58,5.74-2.24,8.19,1.69c1.58,2.53,3.26,3.36,6.11,1.24
			c2.69-2.01,5.86-3.85,9.05-4.48c5.21-1.04,9.19,2.25,11.96,8.32c1.22,2.68,2.3,5.71,4.27,7.68c3.31,3.3,6.08,6.67,6.44,11.26
			c1.14,0.23,1.99,0.41,2.84,0.58c-0.28,0.75-0.49,1.53-0.84,2.24c-0.8,1.62-1.79,3.15-2.47,4.82c-0.96,2.37-1.23,5.21-2.65,7.17
			c-2.71,3.75-1.4,7.18-0.36,10.89c1.01,3.61,2.11,7.29,2.42,11c0.41,4.95,0.1,9.97,0.1,16.08c1.53-1.75,2.24-2.56,2.9-3.32
			c1.18,6.59-4.18,12.44-2.15,19.25c0.94-1.24,1.74-2.54,1.95-3.93c1.21-7.7,2.71-15.39,3.29-23.16c0.89-11.9,1.29-23.85,1.53-35.79
			c0.1-5.02-2.56-9.7-1.56-15.15c0.45-2.45-1.83-5.73-3.41-8.27c-2.82-4.53-5.42-9.03-5.91-13.94c-1.13-0.83-1.71-2.22-2.28-3.61
			c-1.76-4.28-3.51-8.56-5.26-12.84c66.74,0,133.48,0,200.23,0c0,169.67,0,339.33,0,509c-50.32,0-100.63,0-150.95,0
			c0.99-2.47,1.99-4.93,3.3-8.18C383.68,707.79,379,710.34,374.32,712.89z M333.56,293.87c0.43-0.19,0.86-0.38,1.28-0.57
			c-0.74-1.25-1.21-3.2-2.25-3.64c-4.51-1.89-9.18-3.36-13.81-4.93c-0.31-0.1-0.73,0.24-1.11,0.28c-4.09,0.45-8.18,1.14-12.28,1.23
			c-4.38,0.1-6.01,1.33-4.99,5.8c1.19,5.2-0.18,9.87-1.56,14.59c-1.66,5.66-0.2,10.79,3.2,14.79c4.61,5.42,10.05,9.89,17.85,5.93
			c4.59-2.33,9.33-4.35,14-6.51c-0.15-0.46-0.3-0.91-0.46-1.37c-1.03-0.15-2.07-0.3-4.06-0.58c3.7-1.41,6.46-2.58,9.29-3.52
			c3.46-1.14,4.41-4.18,3.88-7.1c-0.37-2.02-2.28-4.28-4.09-5.31c-2.49-1.42-5.57-1.67-8.33-2.64c-3.18-1.11-3.67-3.81-1.23-6.14
			c1.02-0.97,2.1-1.87,3.37-3C332.79,292.28,333.18,293.07,333.56,293.87z M445.71,425.43c0-5.48,0.27-10.57-0.07-15.62
			c-0.36-5.29-0.05-10.21,2.7-14.91c2.24-3.82,0.9-8.28-2.51-9.94c-3.3-1.61-7.23,0.2-8.2,4.99c-1.44,7.13-2.03,14.47-2.66,21.74
			c-0.55,6.34-0.71,12.73-0.91,19.1c-0.13,4.09-0.02,8.2-0.02,13.17c5.96-2.75,10.77-4.97,15.57-7.18c0.24-0.37,0.48-0.73,0.72-1.1
			c-5.15-0.08-2.61-2.33-1.95-3.68c0.76-1.54,1.91-2.9,3.03-4.21c1.09-1.27,2.35-2.36,3.54-3.53c-0.2-0.21-0.39-0.42-0.59-0.63
			c-1.94,1.26-3.88,2.52-6.01,3.89c0.44-1.24,0.77-2.19,1.23-3.48C448.18,424.54,447.15,424.91,445.71,425.43z M302.22,264.87
			c-0.41,0.4-0.83,0.79-1.24,1.19c-0.99-1.01-1.93-2.1-2.99-3.02c-0.64-0.54-1.54-1.21-2.22-1.11c-0.75,0.11-2.07,1.33-1.97,1.59
			c1,2.69,1.63,6.7,3.53,7.58c3.15,1.47,7.16,0.92,10.81,1.18c0.76,0.05,1.92-0.45,2.23-0.08c2.45,2.89,5.94,0.62,8.75,2.08
			c1.09,0.57,3.84,0.01,4.32-0.91c2.31-4.37,4.25-8.98,5.99-13.64c0.47-1.25-7.03-8.63-8.46-8.67c-0.48-0.01-0.97,0.38-1.46,0.4
			c-1.36,0.06-2.72,0.02-4.68,0.02c-4.26,4.77-9.27,9.52-17.41,5.08C299.02,259.34,300.62,262.11,302.22,264.87z M323.08,400.11
			c5.63-8.18,13.18-14.91,16.1-25.61c-4.41,5.5-8.2,10.53-12.32,15.25C324.21,392.8,323.35,396.3,323.08,400.11z M411.47,597.51
			c-3.59,0.58-6.21,1.01-9.02,1.46C404.27,602.25,404.27,602.25,411.47,597.51z"/>
		<path d="M340.91,429.12c-3.7-4.65-7.4-9.31-11.12-13.94c-1.9-2.37-3.85-4.71-5.5-7.38c7.27,2.15,12.4,7.49,17.41,12.83
			c4.91,5.23,9.4,10.9,14.08,16.37c0.55-0.45,1.09-0.89,1.64-1.34c-1.77-2.95-3.54-5.91-5.46-9.1c2.3,1.65,4.44,3.37,6.74,4.82
			c4.12,2.6,3.46,7.71,5.53,11.41c1.71,3.06,2.88,5.85,6.98,4.39c0.8-0.29,1.81,0.12,2.71,0.03c2.68-0.26,5.93,2.3,7.64-2.96
			c0.22,0.44,0.44,0.88,0.66,1.32c-0.22,2.15-0.45,4.31-0.67,6.46c0.35,0.12,0.69,0.24,1.04,0.36c0.83-2.04,1.66-4.08,2.75-6.76
			c2.66,4.59,5.2,8.97,7.88,13.58c-0.07,0.03,0.67-0.29,2.04-0.88c-1.16,2.21-1.98,3.78-2.8,5.35c0.36,0.27,0.72,0.53,1.08,0.8
			c2.99-4.21,6.31-8.22,8.87-12.7c2.59-4.54,4.43-9.55,6.6-14.35c0.37,0.07,0.73,0.13,1.1,0.2c0,3.66,0,7.31,0,11.69
			c1.43-1.05,2.11-1.56,3.43-2.53c0.28,1.95,0.67,3.43,0.66,4.91c-0.01,2.82,1.57,3.95,3.3,2.14c6-6.28,14.86-5.07,21.58-9.51
			c1.87-1.23,5.18,0.03,7.83-0.02c2.29-0.04,4.62-0.08,6.86-0.51c4.47-0.86,7.71,1.97,11.88,3.97c-2.72,7.38,1.46,13.67,3.36,20.47
			c0.99,3.53,2.99,7.45-1.45,10.38c-0.49,0.32-0.61,2.18-0.22,2.93c3.75,7.2,2.4,15.06,2.79,22.68c0.03,0.64-0.95,1.7-1.67,1.96
			c-4.02,1.44-8.04,3.02-12.19,3.92c-5.27,1.14-10.69,1.55-15.99,2.6c-0.84,0.17-1.39,2.01-1.86,3.17
			c-4.18,3.74-8.88,4.64-13.74,1.39c-1.68-1.12-2.88-3.03-4.55-4.21c-1.16-0.82-2.94-1.7-4.06-1.32c-2.03,0.7-4.19,1.94-5.55,3.62
			c-2.98,3.66-6.29,3.33-10.55,3.76c-6.16,0.62-11.4-2.7-17.21-1.92c-1.27-6.71-2.43-13.45-3.93-20.1
			c-0.27-1.19-1.87-2.85-2.94-2.92c-5.83-0.39-6.7-5.25-8.36-9.48c-0.66-1.68-1.35-3.35-2.02-5.02c-0.31,0.1-0.63,0.2-0.94,0.3
			c0.23,1.07,0.33,2.19,0.7,3.19c0.76,2.02,2,3.9,2.46,5.98c0.69,3.19,1.85,4.82,5.37,5.05c1.72,0.12,3.29,2.79,4.93,4.3
			c-1.37,1.59-2.59,3.4-4.17,4.71c-1.13,0.93-2.75,1.21-4.54,1.94c4.77,4.21,9.15,8.08,13.53,11.94c1.34,2.29,2.76,4.52,3.99,6.87
			c1.03,1.99,1.83,4.11,2.73,6.18c-0.51,0.26-1.02,0.52-1.54,0.78c-1.85-3.58-3.7-7.16-5.59-10.83c-2.52,0.65-4.74,1.22-7.62,1.95
			c-0.45-0.28-1.86-1.11-3.21-2.02c-0.65-0.44-1.41-0.92-1.76-1.58c-1.61-3.14-1.57-3.16-4.92-2.04c0.22-3.49,1.48-4.18,4.63-2.75
			c0.95,0.43,2.07,0.42,3.12,0.62c0.14-0.48,0.27-0.95,0.41-1.43c-2.23-1.43-4.58-2.68-6.63-4.35c-1.03-0.83-1.6-2.37-2.15-3.68
			c-0.07-0.17,1.19-0.96,2.2-1.75c-3.3-2.95-6.08-6.65-10.71-7.75c1.8,2.93,3.6,5.86,5.49,8.94c-0.63-0.05-1.51-0.13-2.46-0.21
			c-0.5,1.03-1.03,2.14-1.69,3.5c-1.77-2.09-3.31-3.93-4.86-5.76c-0.48,0.31-0.95,0.62-1.43,0.93c1.2,2.5,2.4,5,3.54,7.38
			c-1.84-0.52-3.88-1.09-6.81-1.91c1.37,5.53-4.62,10.45,0.6,16.95c0.47-1.77,1.27-3.08,0.93-3.79c-1.3-2.68,0.67-3.77,2.02-5.01
			c0.56-0.51,1.95-0.64,2.6-0.26c0.64,0.38,1.27,1.71,1.13,2.46c-0.58,3.06-1.18,6.18-2.28,9.07c-2.18,5.76-4.7,11.39-7.1,17.14
			c0,0,0.54-0.03,1.1-0.07c-0.79,5.9-6.55,6.79-10.09,11.34c4.89-0.43,9.24-0.91,13.6-1.14c1.4-0.07,2.84,0.5,4.84,0.89
			c0.07-0.16,0.61-1.34,1.14-2.51c0.36,0.35,0.72,0.69,1.08,1.04c0.62,1.97,1.24,3.94,1.86,5.9c1.81-0.63,3.62-1.27,6.08-2.13
			c0.16,0.26,0.75,1.24,1.98,3.27c0.92-2.79,1.66-5.04,2.4-7.3c-0.37-0.21-0.75-0.42-1.12-0.63c0.71-0.21,1.42-0.42,2.19-0.65
			c-0.19-0.1-0.36-0.26-0.52-0.26c-2.58,0-5.88,1.09-7.61-0.18c-5.74-4.2-10.32,0.87-15.41,1.22c-2.01,0.14-4.01,0.6-6.01,0.91
			c-0.09-0.33-0.18-0.65-0.28-0.98c9.08-3.97,18.16-7.95,27.64-12.1c-1.62-1.84-2.9-3.3-4.48-5.08c1.58-1.28,3.13-2.54,4.94-4.01
			c2.86,6.53,6.93,11.34,12.99,14.54c-0.15,0.15,0.38-0.36,0.32-0.31c4.57,4.36,9.06,8.65,13.56,12.93c0.29,0.27,0.82,0.4,0.93,0.71
			c2.68,7.7,7.82,3.26,11.67,2.93c3.09,1.93,5.9,3.67,8.62,5.36c-1.29,0.32-2.81,0.7-4.33,1.08c0,0.32,0,0.64,0,0.95
			c2.28,0.54,4.56,1.09,6.89,1.65c-0.19,1.55-0.34,2.77-0.5,4.03c-0.98-0.18-1.96-0.35-3.46-0.62c-0.09,1.44-0.17,2.66-0.25,4.03
			c3.56,0,6.75,0,9.94,0c0.03,0.17,0.07,0.34,0.1,0.51c-3.22,1.44-6.43,2.89-10.18,4.57c-1.45,4.24,0.47,7.92,5.26,10.47
			c-0.36,0.4-0.73,0.8-1.09,1.2c-3.31-1.47-6.55-3.13-9.95-4.32c-1.3-0.45-3.24-0.3-4.35,0.45c-1.42,0.96-2.3,2.81-3.76,4.74
			c-1.09-2.15-1.66-3.28-2.23-4.42c-0.85,0.83-0.65,0.74,1.43,5.83c0.76,1.86,0.32,4.27,0.44,6.6c-3.53-0.23-7.5-0.48-11.46-0.73
			c-0.03,0.53-0.06,1.07-0.09,1.6c0.69,0.1,1.38,0.2,1.89,0.28c0.19,2.28,0.47,4.51,0.54,6.74c0.05,1.71,0.15,3.53-0.3,5.14
			c-1.84,6.55-0.54,11.03,5.24,15.8c-1.09-3.27-2.01-6.08-2.94-8.88c5.43,2.58,12.83,2.43,14.34,9.64
			c1.02,4.84,2.62,10.51-1.08,15.91c0.58,0.37,1.69,1.06,2.61,1.64c-0.78,2.56-1.6,5.28-2.79,9.21c-2.47,1.97-6.2,4.94-10.01,7.98
			c-2.36,0.19-5.23,0.42-8.62,0.69c0.61,1.9,0.94,2.92,1.35,4.19c-0.53,0.05-0.84,0.04-1.13,0.11c-1.77,0.43-3.56,0.81-5.3,1.35
			c-0.42,0.13-0.61,0.98-1.04,1.16c-3.43,1.48-5.04,2.62-6.22,4.8c-0.67-1.51-1.23-2.77-1.82-4.09c-4.82,0.54-9.71,0.46-14.21,1.81
			c-2.82,0.84-5.45,3.47-7.44,5.94c-1.74,2.16-2.42,3.27-3.83-0.01c-0.38-0.87-1.39-1.45-2.15-2.2c-2.49,3.87-3.02,7.41,0.13,10.85
			c-4.22,0.84-4.95-2.1-3.41-10.74c-3.31,1.68-6.25,3.18-9.96,5.07c-0.05,0.15-0.4,1.29-1.01,3.28c-4.59-6.02-10.25,0.07-15.64-2.38
			c0.63,3.93-1.33,4.17-4.28,3.86c-3.15-0.34-6.37-0.09-9.55,0.17c-0.9,0.07-2.47,1.06-2.46,1.61c0.02,1.43,0.42,3.14,1.27,4.21
			c1.01,1.26,2.65,1.97,4.8,3.47c-1.7,0.32-2.68,0.29-3.44,0.71c-0.78,0.43-1.62,1.19-1.92,2.01c-0.26,0.72,0.04,2.41,0.36,2.49
			c2.16,0.53,4.49,1.31,6.59,0.92c2.75-0.52,5.32-2.04,8.22-3.22c0.63,1.77,1.01,2.83,1.43,4.03c0.47-0.22,0.78-0.41,1.11-0.51
			c1.77-0.52,3.52-1.18,5.33-1.47c3.09-0.49,6.71,2.47,9.28-1.81c0.32-0.54,2.18-0.07,3.32-0.07c-0.12-0.33-0.23-0.66-0.35-0.99
			c2.97-1.23,5.93-2.45,8.17-3.38c3.5,1.57,6.65,2.99,10.24,4.6c-0.4-1.77-0.65-2.88-0.82-3.63c3.38-1.86,6.48-3.67,9.68-5.25
			c0.68-0.33,1.75,0.2,3.41,0.45c0.02-0.03,0.74-0.95,1.61-2.07c1.81,1.55,3.45,3.03,5.18,4.39c0.44,0.34,1.29,0.58,1.7,0.36
			c0.4-0.22,0.83-1.23,0.66-1.63c-0.86-2.13-1.91-4.18-3.35-7.22c1.13-2.13,2.66,0.91,3.89,1.71c1,0.65,1.31,2.36,2.25,3.21
			c1,0.9,2.38,1.35,3.59,2c0.46-1.05,0.87-2.13,1.41-3.13c0.67-1.25,1.45-2.43,2.55-4.23c0.58,1.73,1,2.98,1.42,4.22
			c0.18-0.01,0.37-0.02,0.55-0.02c0-1.11,0-2.22,0-4.04c2.37,1.83,2.82,3.02,0.92,5.09c-2.64,2.88-6.34,3.13-9.47,4.76
			c-1.33,0.69-2.7,1.31-3.72,2.88c1.21-0.33,2.42-0.66,4.77-1.3c-3.7,3.12-6.18,6.09-10.27,5.84c-2.96-0.18-3.59,1.5-3.33,4.08
			c-0.9-3.12-3.89-4.34-6.55-3.19c-1.76,0.76-4.06,1.38-5.74,0.83c-3.11-1.03-4.66,0.01-5.7,2.85c-47.45,0-94.9,0-142.35,0
			c0.68-0.39,1.33-1.07,2.03-1.14c5.84-0.61,11.7-1.09,17.55-1.64c4.68-0.44,9.35-0.9,14.03-1.35c0.03-0.35,0.05-0.7,0.08-1.05
			c-6.78-0.75-13.56-1.5-20.34-2.25c2.23-0.59,4.49-0.17,6.53-0.69c2.55-0.65,5.54-1.47,7.18-3.34c1.59-1.81-1.66-7.89-4.34-8.63
			c-3.16-0.87-3.31,2.21-4.3,4.12c-0.16,0.32-0.56,0.5-0.61,0.55c-2.33-1.64-4.36-3.54-6.72-4.63c-3.64-1.68-7.43-3.6-11.29-4.01
			c-8.24-0.88-16.54-3.64-24.89-0.45c-0.59,0.23-1.44-0.39-2.19-0.48c-6.71-0.84-13.41-2.16-20.13-2.29
			c-4.24-0.08-9.05-0.51-12.57,3.43c-0.48,0.53-2.17,0.77-2.46,0.41c-0.58-0.73-0.59-1.97-0.93-3.41
			c-6.34,2.77-12.66,0.76-18.99-0.79c-2.5-0.61-5.46-0.87-7.3-2.46c-6.11-5.27-9.44-13.33-5.71-22.02
			c-2.81-1.17-3.42-3.14-2.91-6.38c0.89-5.76-0.14-7.59-4.31-8.14c-5.45-0.72-8.22-4.62-10.88-8.84c-1.02-1.62-1.81-3.41-2.5-4.74
			c-3.66,4.75-6.98,9.31-10.56,13.64c-4.31,5.21-8.72,10.34-13.34,15.23c-1.45,1.53-3.75,2.19-5.46,3.15
			c-0.43-1.49-0.63-2.17-0.66-2.28c-1.52,0.95-2.79,1.75-4.06,2.55c-0.26-0.39-0.52-0.78-0.78-1.17c0.78-0.86,1.43-1.91,2.35-2.53
			c3.64-2.45,7.88-4.19,10.93-7.25c4.5-4.52,8.56-9.67,12.03-15.1c1.79-2.81,4.6-5.5,3.62-10.14c-0.53-2.51,1.89-5.62,2.66-8.55
			c0.86-3.27,1.02-6.8,4.33-8.72c0.53-0.31,1.3-1.1,1.21-1.49c-0.93-4.31,2.22-3.01,3.83-3.72c0.47-1.14,1.08-2.51,1.97-2.75
			c1.7-0.47,3.55-0.35,5.35-0.37c3.07-0.04,6.15-0.01,10.04-0.01c-1.25-3.74-2.05-6.14-2.85-8.53c3.01-0.22,6.14,1.24,8.82-2.11
			c1.37-1.72,3.06-2.6,2.45-5.28c-0.18-0.8,0.59-2.07,1.26-2.8c1.96-2.16,3.91-4.41,6.2-6.13c1.95-1.47,4.56-3.46,6.56-3.12
			c8.66,1.44,17.99-1.52,26.01,4.12c1.06,0.75,2.92,2.04,2.77,2.54c-0.43,1.46-1.7,2.65-2.64,3.95c0,0,0.12,0.11,0.12,0.11
			c-2.12-1.69-4.24-3.38-6.5-5.19c-3.55,0.63-7.68,1.16-11.71,2.12c-4.64,1.1-9.79,1.65-11.39,7.73
			c-1.69,6.43-0.16,11.85,4.77,16.14c1.15,1,2.36,1.92,3.55,2.87c-6.95,0.84-13.68,0.74-20.4,0.88c-5.18,0.11-6.02,1.55-4.1,6.61
			c0.53,1.38,1.57,2.55,2.05,3.95c1.49,4.28,5.63,6.51,6.59,11.71c0.87,4.7,5.2,8.65,7.86,13.03c2.78,4.59,5.44,9.26,8.03,13.97
			c0.93,1.7,1.5,3.61,2.26,5.48c-1.42,1.23-3.27,2.85-5.13,4.46c0.17,0.28,0.35,0.56,0.52,0.84c1.8-1.22,3.6-2.44,6.1-4.13
			c-0.63,1.73-0.74,3.33-1.51,3.86c-1.41,0.96-3.21,1.28-5.66,2.16c1.64,0.66,2.78,1.13,3.8,1.55c-0.21,0.86-0.44,1.79-0.81,3.33
			c3.01-1.29,5.35-4.65,8-1.16c4.79-1.59,6.76-7.99,12.59-7.76c0.35,0.01,1.24-1.66,1.05-2.25c-1.08-3.27,1.28-4.06,3.15-5.23
			c2.01-1.26,4.07-2.43,6.07-3.71c17.32-11.08,34.68-22.09,51.9-33.34c4.69-3.07,11.12-3.44,13.88-9.57
			c0.11-0.24,0.13-0.51,0.21-0.84c-1.13-1.94-1.6-4.79-5.01-3.45c-0.52,0.21-2.16-0.92-2.25-1.58c-0.58-4.26-2.95-4.62-6.23-3.63
			c-0.71,0.21-1.54-0.06-2.31-0.05c-4.45,0.05-8.92-0.14-13.34,0.25c-4.07,0.36-8.08,1.37-12.64,2.18c0.42-1.2,0.64-1.67,0.76-2.17
			c1.13-4.79-1.86-9.19-6.25-9.66c-0.87-0.09-1.6-1.59-2.94-3.03c4.56-1.14,8.03-2.04,11.53-2.87c3.68-0.87,7.36-2.08,11.09-2.38
			c6.5-0.53,12.63-4.33,19.47-2.1c2.67,0.87,5.7,0.49,8.44,1.21c3.1,0.81,6.05,2.21,10.14,3.77c3.87-1.81,7.52-5.17,7.7-12
			c0.11-4.09,1.89-8.11,2.81-12.19c0.28-1.24,0.71-2.95,0.16-3.79c-3.73-5.68-3.38-10.91,0.9-15.5c-0.49-1.76-0.88-3.15-1.27-4.53
			c0.36-0.14,0.71-0.29,1.07-0.43c1.57,2.67,3.13,5.34,4.7,8c0.27-0.16,0.54-0.33,0.81-0.49c-1.19-2.28-2.01-4.94-3.68-6.74
			c-1.8-1.94-4.39-3.07-7.26-4.97c0.66,9.95-0.73,17.62-8.72,22.65c-1.77-1.67-3.26-3.78-5.25-4.84
			c-7.25-3.86-3.92-12.05-6.68-17.73c-0.12-0.24,0.79-2.19-0.55-2.63c-1.09-0.36-2.66-0.35-3.57,0.25c-0.73,0.48-0.82,2.08-1.11,3.2
			c-0.27,1.07-0.19,2.32-0.7,3.23c-0.93,1.68-1.85,3.08-0.37,5.02c0.49,0.64,0.19,1.94,0.28,3.44c-2.53-0.77-4.5-1.37-6.47-1.97
			c-4.19,6.55-5.06,7-8.79,4c0.93-1.08,1.67-2.44,2.78-3.12c1.22-0.75,2.78-0.88,4.43-1.35c-4.64-4.24-8.08-5.19-12.18-3.31
			c-0.26-2.46-1.1-4.92-0.64-7.09c1.16-5.46-0.94-8.73-6.3-8.79c-2.98-0.03-5.99-0.28-8.94,0.02c-16.4,1.66-32.84,3.05-49.15,5.44
			c-5.75,0.84-12.29,0.61-16.74,6.7c-2.75,3.77-2.62,8.46,2.03,10.44c-0.82,0.99-1.55,1.87-2.96,3.57
			c4.26-0.92,7.67-1.65,11.08-2.41c3.56-0.79,7.07-2.02,10.66-2.35c14.9-1.38,29.81-2.66,44.73-3.59c3.02-0.19,6.13,1.29,9.2,2.01
			c-0.09,0.36-0.19,0.71-0.28,1.07c1.8-1.06,3.6-2.11,5.4-3.17c0.19,0.3,0.39,0.61,0.58,0.91c-2.71,3.36-5.41,6.72-8.23,10.22
			c-3.43-4.82-3.74-4.69-7.31-0.55c-0.54,0.63-2.98-0.12-4.33-0.74c-3.46-1.58-6.65-4.23-10.23-5c-4.97-1.07-10.21-0.81-15.82-1.15
			c-0.69,4.89,0.94,10.55-3.78,13.29c0.67,2.97,1.62,5.42,1.67,7.89c0.09,3.8-3.66,2.24-5.48,3.28c-1.98,1.13-4.93,0.49-7.45,0.48
			c-3.81-0.02-7.62-0.31-11.42-0.21c-7.9,0.21-12.7,9.17-21.04,8.39c-0.45-0.04-0.97,0.8-0.59,0.47c-0.19,2.68-0.33,4.37-0.44,6.06
			c-0.11,1.81-0.2,3.63-0.29,5.44c-2.32-1.92-4.65-3.84-6.72-5.55c1.03-0.17,2.26-0.38,3.49-0.59c0.14-0.54,0.28-1.07,0.42-1.61
			c-2.24-1.18-4.49-2.35-6.73-3.53c0,0,0.11,0.11,0.11,0.11c0-1.12,0-2.24,0-3.36c-0.3,0.38-0.59,0.76-0.89,1.13
			c-2.9-1.02-5.8-2.05-8.7-3.07c0.11-0.37,0.21-0.74,0.32-1.11c13.56-1.9,27.12-3.8,40.25-5.64c-0.14-0.9-0.59-1.89-0.29-2.37
			c0.39-0.63,1.38-1.21,2.1-1.21c6.37,0.02,7.87-2.28,5.26-8.27c-2.11,0.8-4.22,1.6-6.47,2.46c-0.28-2.69-0.49-4.8-0.75-7.33
			c-1.54,3.14-2.76,5.64-4.04,8.24c-7.2-5.47-7.77-4.64-11.46-0.08c-1.67,2.07-2.74,1.22-3.97-0.5c-1.3-1.8-2.79-3.45-4.42-5.43
			c0.55-2.34,1.31-5.56,1.85-7.85c3.51-2.03,7.56,3.34,8.8-1.93c0.88-3.76-3.36-3.37-5.54-4.44c-1.18,1.53-2.17,2.81-3.15,4.08
			c-0.12-0.1-0.24-0.2-0.36-0.3c0.48-1.52,0.96-3.03,1.44-4.55c-0.35-0.3-0.71-0.6-1.06-0.9c-4.01,2.97-8.01,5.94-12.56,9.31
			c-1.12-1.23-2.52-2.77-4.07-4.47c1.65-2.62,3.05-4.86,4.7-7.48c1.02,2.76,1.76,4.75,2.37,6.41c3.11-4.23,5.66-8.4,8.9-11.86
			c2.22-2.37,5.25-4.07,8.18-5.49c2.52-1.22,5.41-1.63,7.91-2.33c-1.18-1.99,0.97-2.47,2.86-2.79c4.98-0.84,9.98-1.53,14.98-2.24
			c0.33-0.05,0.7,0.22,1.01,0.32c0.25,1.15,0.48,2.2,0.7,3.25c0.35-0.01,0.7-0.03,1.05-0.04c0.1-1.51,0.2-3.02,0.24-3.53
			c5.05-0.29,10.6-0.38,16.09-1.05c1.7-0.21,3.21-1.99,4.83-3.02c0.73-0.46,1.5-1.16,2.27-1.21c4.9-0.26,9.8-0.5,14.71-0.51
			c8.07-0.02,16-2.93,24.17-0.98c3.34,0.8,6.82,1.15,10.25,1.31c1.9,0.09,3.51-0.85,5.71,0.44c2,1.17,5.06,1.46,6.98-2.05
			c2-3.65,4.83-6.73,9.75-4.68c0.72,0.3,2.01-0.89,3.04-1.39c-1.38,0.98-2.75,1.96-4.13,2.94c0.26,0.37,0.52,0.75,0.79,1.12
			c1.15,1.7,2.31,3.4,3.46,5.09c0.49,0.05,0.97,0.09,1.46,0.14c-2.49-4.97,1.27-5.01,4.13-6.5c-2.47-0.77-0.84-5.77-4.97-3.51
			c1.19-1.6,2.38-3.21,3.65-4.91c-2.57,0.5-4.98,1.78-6.38,1.01c-1.51-0.83-2.07-3.56-2.89-5.16c-1.22,1.58-2.14,2.84-3.18,3.97
			c-0.09,0.1-0.99-0.6-1.51-0.92c0.5-0.84,1-1.68,1.6-2.68c-2.98-1.37-5.98-2.74-8.98-4.12c0,0,0.07,0.04,0.07,0.04
			c-2.74-0.68-5.48-1.37-8.22-2.05c1.61-0.63,3.39,0.16,4.49-0.43c3.24-1.74,6.32-1.48,10.11-0.7c-0.62-1.06-1.23-2.12-1.87-3.21
			c1.05,0,2.09,0,3.71,0c-0.62-1.86-0.73-3.65-1.63-4.46c-1.02-0.91-3.65-1.72-4.06-1.22c-2.96,3.63-6.57,2.42-10.11,2.04
			c-0.16-0.02-0.29-0.39-0.59-0.82c0.57-0.42,1.12-0.82,2.49-1.83c-1.9-0.44-3.17-0.73-4.45-1.03c-0.49,4.02-3.54,2.51-5.71,2.9
			c0,0,0.06,0.02,0.06,0.02c0.79-0.9,1.58-1.8,2.58-2.94c-2.64,0.34-4.62,0.6-7.62,0.99c1.28-1.9,1.83-2.71,2.37-3.52
			c-4.54-0.69-4.95-1.57-3.36-6.93c1.27,0.28,2.5,0.55,4.6,1.02c-1.79,1.42-2.97,2.36-4.15,3.29c0.17,0.31,0.33,0.62,0.5,0.94
			c2.29-1.27,4.58-2.53,6.87-3.8c-0.01,0.28-0.02,0.56-0.04,0.84c1.59,0.13,3.18,0.26,5.05,0.42c-1.91-2.9-3.23-4.91-4.67-7.11
			c0.94-0.72,1.68-1.29,2.26-1.73c1.51,2.25,2.83,4.21,4.1,6.1c1.87-1.06,3.41-1.94,4.95-2.82c0.14,0.29,0.29,0.57,0.43,0.86
			c-0.91,0.54-1.82,1.09-2.72,1.63c0.04,0.29,0.09,0.57,0.13,0.86c1.31,0,2.61,0,4.15,0c-0.23,1.11-0.45,2.14-0.67,3.18
			c0.34,0.09,0.68,0.18,1.02,0.27c-0.08-1.92,3-2.8,0.74-5.63c-0.45-0.56,0.35-2.91,1.2-3.72c0.89-0.86,2.52-0.87,4.54-1.47
			c-0.25,1.22-0.64,2.11-0.54,2.94c0.09,0.74,0.89,2.05,1.1,2c3.25-0.87,6.48,1.57,9.92-0.63c3.19-2.04,4.17-1.27,4.85,0.77
			c-1.91,1.96-3.51,3.61-5.12,5.27c0.22,0.31,0.43,0.62,0.65,0.93c3.16-3.52,7.73-0.91,11.53-3.49c2.37-1.61,6.56-0.73,9.84-0.27
			c2.87,0.4,3.44-0.56,3.23-3.29c-4.42,2.29-3.71-2.47-5.54-4.07c-0.42,0.7-0.93,1.86-1.12,1.81c-4.18-1.2-8.3-2.64-12.5-3.78
			c-1.89-0.51-3.92-0.5-5.89-0.62c-1.29-0.08-2.59,0.04-3.89,0.06l0.07,0.12c-3.04-3-5.4-7.39-10.71-5.8
			c-0.37,1.23-0.74,2.46-1.11,3.68c0.33,1.13,0.67,2.26,1.19,4.01c-5.73-1.59-10.59-2.93-15.45-4.28c-0.1,0.35-0.21,0.7-0.31,1.05
			c1.15,0.67,2.29,1.35,3.94,2.32c-2.08,0.6-3.69,1.41-5.33,1.47c-2.28,0.08-4.57-0.58-6.86-0.59c-3.62-0.01-7.24,0.24-10.85,0.46
			c-0.75,0.04-1.47,0.45-2.22,0.61c-1.26,0.27-2.54,0.47-3.8,0.72c-2.71,0.53-5.44,1.56-7.94-0.74c-0.18-0.16-1.16,0.19-1.33,0.53
			c-1.59,3.29-4.88,2.83-7.47,3.93c-1.76,0.75-2.91,1.08-4.19-0.96c-1.35-2.14-3.9-2.13-4.83-0.01c-2.38,5.44-7.4,6.12-11.71,8.19
			c-3.39,1.63-6.75,3.32-10.42,5.14c-2.2-3.09-3.62,1.1-5.34,2c-2.17,1.14-3.89,3.24-5.8,4.93c-2.02,1.12-0.9-5.37-4.56-2.22
			l0.12,0.11c-0.25-7.43,2.77-13.83,5.8-20.23c0.16-0.34,0.51-0.7,0.85-0.82c5.35-1.97,10.64-4.15,16.09-5.76
			c3.08-0.91,6.41-0.87,9.63-1.25c-3.05-0.52-6.03-0.56-8.97-0.16c-2.94,0.4-5.87,1.1-8.73,1.94c-2.62,0.77-5.15,1.89-7.73,2.85
			c-0.27-0.59-0.54-1.17-0.81-1.76c10.16-8.65,20.33-17.29,30.49-25.94c-0.26-0.34-0.53-0.67-0.79-1.01
			c-1.58,1.14-3.16,2.28-4.75,3.42c3.99-8.48,10.66-14.9,13.68-23.72c0.04-0.12,0.16-0.21,0.25-0.31c2.89-3.39,5.88-6.69,8.63-10.2
			c1.83-2.34,3.76-3.22,6.54-1.52c-3.04-2.65-3.89-5.92-2.52-9.33c2.93-7.34,4.01-15.28,8.69-22.16c3.56-5.25,8.05-3.75,12.21-4.63
			c1.13-0.24,2.86,2.63,4.36,4.12c0.86-0.51,2.18-1.29,3.59-2.12c0-1.21,0-2.47,0-3.8c3.46,0.96,5.16-0.65,4.83-3.62
			c-0.55-4.88-1.5-9.98-0.66-14.66c0.61-3.39,0.57-8.75,4.79-9.29c2.24,2.12,3.71,3.51,5.53,5.23c0.08,0.61,0.24,1.86,0.52,4.04
			c4.13-6.79,9-9.91,16.12-7.06c0.23-1.37,0.46-2.7,0.55-3.23c1.6,0.96,3.44,2.92,4.51,2.54c3.84-1.38,7.53-3.36,11.04-5.53
			c1.36-0.84,3.22-3.67,2.91-4.11c-1.24-1.78-3.04-3.5-4.99-4.28c-3.6-1.44-7.89-1.44-11.09-3.45c-4.58-2.87-8.64-3.12-12.95-0.21
			c-0.82-1.11-1.44-1.94-2.32-3.12c-0.77,1.41-1.3,2.38-1.84,3.37c-2.42-0.95-5.1-1.26-6.64-2.81c-1.55-1.56-1.77-4.53-4.73-4.81
			c-0.1-0.01-0.12-2.15,0.01-3.28c0.14-1.28,1.11-3.15,0.62-3.69c-3.96-4.39-0.65-8.91-0.38-13.29c0.21-3.47,1.24-6.88,1.7-10.35
			c0.1-0.74-0.52-2.11-1.07-2.28c-0.8-0.25-2.28,0.01-2.68,0.62c-1.52,2.32-3.1,4.73-3.97,7.35c-1.38,4.17-2.2,8.55-3.42,13.46
			c-0.37-1.61-0.61-2.63-0.98-4.25c-0.48,1.3-0.71,1.92-0.93,2.52c-0.92-0.32-1.8-0.62-2.8-0.97c-0.69,1.73-1.25,3.14-1.81,4.54
			c0.19,0.14,0.38,0.27,0.57,0.41c0.53-0.71,1.07-1.41,1.21-1.61c0.45,2.66,1.02,5.47,1.38,8.32c0.17,1.31,0.09,2.72-0.17,4.02
			c-0.56,2.74-1.76,5.06-0.8,8.34c0.93,3.17-0.21,6.99-0.29,10.52c-0.07,3.41,0.26,6.84-0.02,10.22c-0.09,1.12-1.36,2.47-2.43,3.06
			c-0.83,0.46-2.18-0.09-3.29-0.19c0.31-1.21,0.58-2.44,0.94-3.63c0.21-0.7,0.59-1.35,0.89-2.03c-0.2-0.24-0.39-0.47-0.59-0.71
			c-1.66,0.95-3.33,1.9-4.87,2.79c-1-6.29-1.86-12.51-3.01-18.68c-0.59-3.17-1.07-6.66-2.69-9.26c-4.99-8.04-1.73-15.48,0.86-23
			c0.28-0.82,2.09-1.06,3.18-1.56c0.42,6.36,0.85,12.72,1.21,18.27c2.16-5.7,4.7-12.25-1.31-18.17c0.31-2.27,1.23-4.67,0.82-6.79
			c-1.37-7.14-2-14.14,0.62-21.12c0.27-0.71,0.14-1.61,0.12-2.42c-0.36-11.1,2.81-21.31,7.26-31.17c1.1-2.43,2.72-4.61,3.9-7.01
			c2.87-5.81,5.64-11.67,8.44-17.52c40.67,0,81.34,0,122.01,0c1.75,4.28,3.51,8.56,5.26,12.84c0.57,1.39,1.15,2.78,2.28,3.61
			c0.48,4.9,3.09,9.4,5.91,13.94c1.58,2.54,3.86,5.81,3.41,8.27c-1,5.45,1.66,10.13,1.56,15.15c-0.23,11.94-0.64,23.89-1.53,35.79
			c-0.58,7.76-2.09,15.45-3.29,23.16c-0.22,1.4-1.01,2.69-1.95,3.93c-2.03-6.81,3.33-12.66,2.15-19.25
			c-0.66,0.76-1.37,1.57-2.9,3.32c0-6.11,0.31-11.12-0.1-16.08c-0.31-3.72-1.42-7.39-2.42-11c-1.03-3.71-2.35-7.14,0.36-10.89
			c1.42-1.96,1.69-4.8,2.65-7.17c0.68-1.67,1.67-3.2,2.47-4.82c0.35-0.71,0.57-1.49,0.84-2.24c-0.85-0.17-1.69-0.35-2.84-0.58
			c-0.36-4.6-3.13-7.96-6.44-11.26c-1.97-1.97-3.05-5-4.27-7.68c-2.77-6.07-6.75-9.36-11.96-8.32c-3.19,0.64-6.36,2.47-9.05,4.48
			c-2.84,2.12-4.53,1.28-6.11-1.24c-2.46-3.92-4.34-4.27-8.19-1.69c-2.81,1.88-5.72,3.63-8.72,5.14c-1.69,0.85-3.65,1.09-4.39,1.3
			c-1.22,3.03-1.66,6.2-3.4,7.84c-1.73,1.61-4.78,1.67-7.49,2.49c0.6,0.72,1.14,1.36,1.73,2.07c-1.94,0.92-3.68,1.75-5.78,2.75
			c0.65,2.04,1.23,3.88,1.79,5.65c3.07-0.7,5.7-1.3,8.65-1.98c-0.82,1.6-1.62,3.16-2.61,5.07c1.36,0.27,2.42,0.48,3.7,0.74
			c-0.32,1.11-0.63,2.21-1,3.53c1.14,0.22,2.1,0.2,2.85,0.61c0.98,0.53,2.31,1.26,2.52,2.16c0.2,0.83-0.8,2.05-1.43,2.98
			c-0.84,1.26-1.83,2.41-2.76,3.6c-0.47,0.6-0.99,1.76-1.4,1.72c-3.7-0.36-7.39-0.94-11.08-1.45c-0.96-0.13-1.95-0.48-2.87-0.32
			c-0.96,0.17-2.01,0.63-2.72,1.31c-1.79,1.73-4.13,3.38-4.87,5.57c-0.71,2.11,4.12,6.48,7.16,6.8c2.28,0.24,4.66-0.48,6.91-0.15
			c1.47,0.22,3.59,1.26,4.01,2.47c1.2,3.46,3.37,4.54,6.55,4.59c3.3,0.05,3.58,3.43,5.16,5.37c2.65,3.24,0.55,5.39-2.07,7.73
			c1.45,1.33,2.72,2.49,4.28,3.91c-1.8,0.59-3.51,0.64-4.46,1.55c-2.66,2.56-2.32,4.24,0.6,7.02c0.76,0.72,1.06,1.96,1.76,3.36
			c-1.66,0.4-2.77,0.67-3.88,0.94c-0.07,0.3-0.14,0.59-0.22,0.89c0.98,0.5,1.96,1,2.91,1.48c-0.79,1.21-1.4,2.66-2.43,3.6
			c-1.79,1.62-2.97,4.3-6.45,2.85c-2.82-1.17-12.09,4.09-13,7.09c-0.48,1.6-0.25,4.79,0.59,5.22c2.11,1.07,4.75,1.13,7.2,1.29
			c5.58,0.37,11.44-2.37,16.66,1.74c0.62,0.48,1.48,0.91,1.73,1.57c1.42,3.64,4.08,2.96,6.86,2.52c1.71-0.27,3.49-0.05,5.24-0.05
			c0.05,0.58,0.11,1.16,0.16,1.74c-1.44,0.35-2.87,0.71-3.91,0.96c-0.5,2.13-0.73,4.4-1.57,6.39c-1.27,3.02-4.14,3.21-6.86,3.5
			c-4.21,0.44-8.41,0.93-12.94,1.44c3.36,2.24,7.04,1.41,10.6,1.55c1.88,0.07,3.76,0.45,5.59,0.91c1.81,0.46,3.64,1.88,5.32,1.67
			c3.98-0.5,8.69,0.35,11.23-4.15c0.95-1.68,1.88-4.15,1.37-5.76c-0.84-2.68-2.89-4.93-4.32-7.43c-0.56-0.98-1.07-2.15-1.13-3.26
			c-0.14-2.56-0.2-5.17,0.17-7.68c0.13-0.86,2.04-2.33,2.49-2.11c4.72,2.36,9.45,4.76,13.84,7.71c1.46,0.98,2.01,3.5,2.87,5.38
			c0.43,0.95,0.65,2.01,0.9,3.03c0.35,1.41,0.66,2.83,0.95,4.25c0.18,0.89,0.02,2.31,0.51,2.61c3.04,1.87,1.97,4.6,1.16,6.85
			c-0.74,2.06-2.34,3.79-3.58,5.65c-0.36,0.54-0.89,0.98-1.14,1.55c-1.36,3.17-2.71,6.34-3.94,9.56c-0.37,0.97-0.32,2.12-0.46,3.15
			c-0.83,0.2-2.36,0.31-2.4,0.62c-0.56,4.73-4,3.5-6.78,3.93c-1.52,0.24-3.27,0.83-4.35,1.9c-4.25,4.2-8.26,8.65-12.38,12.99
			c-0.36,0.38-0.79,0.71-1.23,1c-5.1,3.36-5.05,3.72-0.09,7.38c0.92,0.68,1.22,2.26,2.13,4.06c3.59-1.64,7.53-3.44,12.79-5.85
			c-3.95,6.85-7.43,12.88-11.05,19.14c0.81,0.79,1.47,1.43,2.2,2.14c-2.41,3.33-6.84,5.97-4.4,10.72c0.67,1.3,4.28,0.94,7.32,1.48
			c1.48,2.98-1.61,5.44-3.25,8.36c1.26,1.2,2.43,2.3,4.11,3.89c3.68-12.1,7.23-24.34,8.71-37.35c3.54,2.26,6.64,4.24,10.24,6.54
			c-2.05-5.15-8.27-5.66-9.64-11.93c3.01,1.81,5.15,3.1,7.29,4.39c0,0-0.2-0.19-0.2-0.19c3.12,3.51,6.27,6.99,9.34,10.54
			c3.69,4.27,7.31,8.61,11,12.88c0.26,0.3,0.88,0.26,1.33,0.38c2.19,4.1,4.36,8.2,6.62,12.25c0.1,0.18,1.03-0.16,1.57-0.25
			c-0.81,2.43-0.23,4.09,2.8,5.11c-0.67-2.33,0.39-3.95-1.07-6.25c-1.65-2.59-4.54-5.67-2.74-9.02c-1.2-1.11-2.13-2.09-3.19-2.88
			c-0.54-0.4-1.31-0.45-1.97-0.67l0.13,0.13c0-1.42,0-2.84,0-4.28c-1.37-0.2-2.59-0.37-3.8-0.54c0.47-0.41,1.34-1.19,1.31-1.22
			c-1.64-2.17-3.35-4.28-5.06-6.39L340.91,429.12z M325.11,499.45c1.5,0.33,3,0.65,4.5,0.98c0.15-0.59,0.29-1.19,0.44-1.78
			c-3.09-1.21-6.17-2.43-9.26-3.64c-0.18,0.37-0.35,0.74-0.53,1.11c1.35,0.86,2.7,1.73,4.04,2.59c-1.05,0.41-2.11,0.81-3.16,1.22
			c0.56,1.12,0.99,2.34,1.72,3.33c0.79,1.07,1.89,1.88,2.78,2.88c1.04,1.17,2,2.43,3,3.65c0.16-0.16,0.33-0.31,0.49-0.47
			C327.78,506.01,326.44,502.73,325.11,499.45z M281.26,480.58c-2.12,0.48-4.35,0.68-6.29,1.58c-0.74,0.34-1.36,2.49-1.03,3.43
			c0.32,0.91,1.92,1.79,2.98,1.81c1.04,0.02,2.1-1.04,3.44-1.79c1.41,0.19,3.32,0.44,5.23,0.7c0.2-0.46,0.4-0.92,0.59-1.39
			c-1.65-1.45-3.3-2.9-4.96-4.34c0.02-0.22,0.02-0.46,0.09-0.66c0.02-0.07,0.22-0.13,0.33-0.12c5.01,0.35,5.99-0.41,5.01-3.4
			c1.49-0.76,2.93-1.49,4.38-2.22c1.72-0.66,3.4-1.46,5.17-1.91c1.01-0.26,2.24-0.2,3.22,0.17c6.37,2.39,12.63,5.25,19.62,3.98
			c0.65,5.53,0.64,5.66,2.72,5.76c5.14,0.26,7.99,4.47,9.42,8.24c1.51,4,4.15,4.68,7.18,6.99c-0.51-2.93-0.84-4.85-1.04-6.01
			c-3.57-3.41-6.76-6.45-10.1-9.63c0.77-0.39,1.61-0.83,2.51-1.29c-2.25-1.78-5.01-2.95-6.08-5.06c-1.77-3.49-2.75-7.53-3.5-11.46
			c-0.87-4.54-2.03-6.4-5.63-7.65c0.68,1.28,1.63,3.07,2.57,4.85c-2.01,1.12-3.91,2.79-6.05,3.24c-3.63,0.76-7.4,0.75-11.02,1.06
			c-1.23-6.2-2.4-7.8-6-8.7c5.33,5.53,5.81,8.05,2.44,13.47c-0.85-0.52-1.7-1.04-1.65-1.01c0.38-2.81,1.28-5.18,0.73-7.09
			c-0.33-1.15-2.98-2.36-4.47-2.21c-3.3,0.32-5.32,2.59-5.18,7.78c-1.98-1.86-3.11-2.92-4.24-3.99c0.22-0.24,0.43-0.47,0.65-0.71
			c-1.56-0.35-3.12-0.71-5.41-1.22c1.24,1.51,2,2.43,3,3.64c-2.44,0.28-4.37,0.5-7.26,0.83c2.95,3.07,5.02,5.22,6.28,6.53
			c4.22-1.63,7.87-3.04,11.48-4.44c0.27,2.43,0.47,4.14,0.64,5.81c-2.91-3.12-9.64-1.05-12.39,4.34
			C279.4,479.14,280.33,479.86,281.26,480.58z M389.82,657.5c0.95-0.05,2.67,0.07,2.71-0.18c0.31-1.57,0.25-3.22,0.32-4.85
			c-1.02,0.04-2.03,0.07-3.05,0.11c-3.69-2.53-5.12-2.18-6.63,1.45c-0.48,1.16-1.57,2.07-1.92,3.24c-0.31,1.02,0.02,2.26,0.07,3.4
			c0.31-0.01,0.61-0.03,0.92-0.04c-0.38,1.2-0.75,2.4-1.13,3.6c0.23,0.09,0.46,0.18,0.68,0.27c1.1-1.71,2.2-3.42,2.94-4.55
			c2.38,0.91,4.38,1.66,7.37,2.8C390.98,660.15,390.4,658.83,389.82,657.5z M272.05,593.53c3.44-2.01,3.45-5.25,2.53-9.02
			c4.61,1.72,1.3-2.46,2.79-3.3c0.77,0.35,1.63,0.73,3.22,1.44c0.13-2.74,1.16-5.88,0.16-6.93c-3-3.21-6.74-5.68-10.33-8.24
			c-0.5-0.36-1.74,0.4-2.63,0.63c0.8,0.55,1.55,1.21,2.4,1.63c1.22,0.6,3.15,0.65,3.68,1.6c2.22,3.96,1.3,6.53-2.43,9.81
			c-2.63,2.31-4.97,4.99-7.44,7.5c0.37,0.45,0.73,0.9,1.1,1.35c2.61-1.69,5.22-3.37,7.83-5.06c0.34,0.16,0.68,0.32,1.02,0.49
			c-0.61,2.73-1.22,5.46-1.85,8.17c-2.54-0.8-5.08-1.61-7.62-2.41c0.26,2.45,0.66,4.24,1.73,5
			C269.22,598.36,270.37,595.11,272.05,593.53z M337.44,468.36c0.33,1.29,0.39,2.77,1.04,3.85c2.04,3.38,4.31,6.6,6.51,9.91
			c-3.11,0.31-5.76,0.58-8.46,0.87c-0.67-0.89-1.51-1.7-1.98-2.69c-2.72-5.77-5.35-11.58-8.37-18.17c-0.27,1.37-0.48,1.79-0.38,2.08
			c1.81,5.12,3.68,10.22,5.48,15.35c0.93,2.66,2.74,3.67,5.34,3.38c2.12,3.39,4.19,6.87,8.01,8.41c0.55,0.22,1.47-0.55,1.79-0.68
			c2.79,1.17,5.35,2.24,7.91,3.32c-3.61-6.97-7.75-13.5-12.08-19.89c-1.39-2.05-3.29-3.73-4.95-5.57
			c-1.67-7.04-7.13-11.16-11.22-16.35c1.21,3.02,2.62,5.92,4.49,8.44C332.64,463.36,335.13,465.78,337.44,468.36z M300,514.95
			c0.07,0.19,0.09,0.29,0.06,0.3c-0.79,0.53-1.57,1.05-2.36,1.59c-0.37-3.39-2.78-6.01-5.67-5.63c-1.19,0.16-2.69,1.19-3.22,2.27
			c-0.35,0.71,0.51,2.61,1.34,3.3c2.45,2.04,5.12,2.4,7.64-0.08c-1.12,1.5-2.24,3-3.22,4.32c2.27,1.62,4.28,3.05,6.39,4.56
			c1.06-0.88,2.15-1.79,3.02-2.51c3.46,2.19,6.47,5.03,9.98,6.14c6.81,2.14,13.89,3.41,20.9,4.76c0.98,0.19,2.24-1.2,3.37-1.85
			c-0.88-0.57-1.7-1.32-2.65-1.67c-5.21-1.9-6.42-7.51-9.63-11.25c-0.13-0.15-0.39-0.18-0.51-0.22c-0.54,1.02-1.07,2.03-1.57,2.99
			c-5.39-1.87-8.2-10.48-6.82-14.77c0.67-2.08,1.26-3.81-0.42-4.85c-1.09-0.68-2.99,0.06-4.17,0.14c0.69,3.87,1.29,7.2,2.05,11.46
			c-2.13-0.77-3.87-0.95-5.03-1.91c-2.42-2.01-4.23-0.96-6.18,0.62C302.27,513.48,301.11,514.18,300,514.95z M338.95,594.95
			c-0.94-1.2-1.88-2.4-2.82-3.61c-1.66-2.15-3.31-4.3-4.96-6.44c-0.16,0.19-0.33,0.38-0.49,0.56c0.25,1.51,0.51,3.02,0.87,5.22
			c0.44,0.43,1.39,1.81,2.68,2.52c1.54,0.84,3.36,1.11,5.06,1.63c-0.77,1.06-1.53,2.12-2.38,3.3c0.54,0.84,1.09,1.59,1.55,2.39
			c1.39,2.43,0.61,4.45-1.07,3.43c-1.85-1.13-3.15-3.28-4.63-5.04c-0.21-0.25-0.02-0.84-0.18-1.18c-0.22-0.44-0.59-1.11-0.92-1.13
			c-2.53-0.1-5.07-0.07-7.6-0.08c-0.95,0-1.89,0-2.9,0c0.43,1.1,0.8,2.03,1.15,2.92c-2.36-1.82-4.65-3.58-6.97-5.36
			c0.13,2.36,0.22,3.98,0.31,5.43c1.5,0.81,3.06,1.65,5.05,2.73c-2.06,0.34-3.27,0.44-4.4,0.81c-0.23,0.07-0.4,1.27-0.18,1.74
			c0.67,1.46,1.54,2.83,2.33,4.23c-0.3,0.31-0.6,0.61-0.9,0.92c-1.58-0.73-3.17-1.46-5.19-2.4c1.16,2.38,2.11,4.33,3.03,6.22
			c1.72-0.3,3.35-0.58,4.7-0.82c0.9,6.26,7.53,1.76,9.37,5.48c-1.42,1.76-2.67,3.31-3.97,4.92c1.37,2.63,2.54,5.77,6,4.29
			c3.61-1.55,1.64-4.47,0.41-6.99c0.28-0.27,0.55-0.55,0.83-0.82c3.46,1.93,6.92,3.85,10.79,6c1.16-1.28,2.97-3.27,4.73-5.22
			c-1.07-2.15-2.07-4.17-3.07-6.18c0.2-0.11,0.41-0.23,0.61-0.34c3.93,3.82,7.86,7.63,11.21,10.88c-1.94,1.11-3.61,2.06-5.52,3.16
			c1,0.95,1.71,1.62,2.46,2.33c0.38-0.86,0.63-1.43,0.74-1.66c1.43,1.31,2.65,2.46,3.92,3.55c0.72,0.62,1.51,1.13,2.27,1.7
			c-0.92,0.52-1.81,1.09-2.75,1.55c-1.07,0.53-2.17,0.98-3.86,1.72c1.76,1.27,2.65,1.91,2.62,1.89c0,2.68,0,4.52,0,6.35
			c0.62,0.06,1.24,0.13,1.86,0.19c0.4-2.13,0.81-4.25,1.26-6.61c1.2,0.7,2.06,1.21,2.88,1.69c4.67-5.46,2.72-11.3,1.1-17.49
			c0.97,0.92,1.57,1.49,2.3,2.19c0.14-1.3,0.25-2.31,0.35-3.3c8.72,0.39,9.13,0.96,5.69,8.44c2.85,0,5.45,0,8.25,0
			c-2.11-9.63-5.05-19.37-11.85-27.11c-0.45,0.62-1.08,1.48-1.58,2.16c-1.63-1.03-2.93-1.85-4.48-2.83c0.3-1.16,0.77-3,1.15-4.47
			c-5.32-0.91-10.38-1.87-15.46-2.61C345.21,595.32,342.07,595.21,338.95,594.95z M323.27,537.15c0.03,0.37,0.07,0.74,0.1,1.11
			c-1.8,0.31-3.67,1.1-5.38,0.82c-2.3-0.38-4.47-1.63-6.72-2.4c-0.89-0.31-1.88-0.52-2.8-0.47c-1.77,0.1-3.52,0.48-5.29,0.64
			c-4.79,0.42-9.65,0.37-14.35,1.27c-5.7,1.09-7.18,5.8-3.55,10.39c2.14,2.7,4.62,5.11,6.87,7.72c0.61,0.7,0.92,1.68,1.61,2.98
			c-2.8,0.39-4.98,0.65-7.14,1.01c-2.09,0.35-4.16,0.8-6.24,1.2c0.07,0.53,0.14,1.05,0.22,1.58c3.69-0.39,7.43-0.51,11.06-1.22
			c4.98-0.97,9.74-3.22,15.05-1.71c1.62,0.46,3.55-0.29,5.69-0.52c-1.23-2.4-2.07-4.04-3.08-6.01c3.32-2.26,6.22-5.18,9.66-6.32
			c3.2-1.06,6.98-0.23,10.61-0.23C330.43,541.73,329.12,539.51,323.27,537.15z M217.31,654.75c-2.04,1.63-3.4,2.48-4.48,3.63
			c-2.91,3.1-7.22,5.09-7.52,10.36c-0.05,0.92-1.08,1.78-1.66,2.66c-0.18-0.14-0.36-0.29-0.54-0.43c0.56-1.48,1.12-2.96,1.68-4.44
			c-3.09,2.42-8.26,2.17-8.2,7.55c0,0.48-1.21,1.46-1.77,1.39c-4.58-0.54-4.98,2.74-5.82,7.43c3.03-1.76,5.85-2.47,7.14-4.34
			c2.38-3.44,3.87-2.48,5.51,0.2c3.92-1.72,4.08-1.64,8.65-0.77c0.6,0.11,1.78-1.17,2.13-2.05c0.37-0.95,0.08-2.19,0.08-3.3
			c0.28-0.14,0.57-0.28,0.85-0.41c0.94,1.33,1.89,2.66,3.02,4.25c1.37-4.14,2.68-8.1,3.98-12.04c0.32,0.95,0.69,2.05,1.12,3.32
			c0.56-2.36,1.08-4.57,1.75-7.38c-1.88,0.82-3.53,1.54-4.12,1.8C218.49,659.62,217.92,657.25,217.31,654.75z M287.68,377.93
			c2.31,0.94,4.4,2.42,6.55,2.52c3.18,0.16,9.75-6.3,10.35-9.62c0.12-0.69-0.36-1.93-0.91-2.25c-2.61-1.49-13.91,1.8-16,4.5
			c-1.91-3.52-4.95-4.28-8.67-2.19c-1.14-0.84-2.28-1.68-3.55-2.61c-0.81,1.01-1.45,1.79-1.99,2.46c-1.48-1.18-2.82-2.25-4.17-3.32
			c-0.43,0.25-0.86,0.5-1.3,0.74c0.56,2.57,1.12,5.13,1.85,8.44c1.86-1.78,2.78-2.65,3.48-3.32c2.51,2,4.76,3.8,7.38,5.88
			c0.36-0.2,1.23-0.67,2.07-1.14c0.86,1.22,1.62,2.3,2.63,3.73C286.4,380.11,287.06,379,287.68,377.93z M233.94,259.02
			c1.28-2.58,2.35-4.38,3.09-6.32c0.65-1.72,1.21-3.58,1.3-5.41c0.21-4.02-0.76-8.34,0.34-12.01c1.32-4.41-1.39-5.6-3.6-7.3
			c-0.67-0.51-3.19,0.07-3.39,0.68c-1.84,5.72-7.53,10.4-3.91,17.67C229.84,250.48,230.5,255.41,233.94,259.02z M312.67,375.22
			c-0.78,1.02-1.5,1.76-1.98,2.64c-1.73,3.14-3.56,5.62-7.58,6.11c-2.07,0.26-4.3,2.47-5.72,4.39c-2.05,2.76-1.11,8.36,1.3,9.9
			c3.5,2.23,5.51-0.66,7.54-2.83C311.37,389.95,314.08,383.51,312.67,375.22z M279.56,594.3c3.08,1.67,5.91,0.66,8.46-1.56
			c3.47-3.04,2.7-7,1.9-11.19c1.63,0.81,2.83,1.89,4.14,2.82c0.86,0.61,1.86,1.34,2.83,1.39c3.44,0.17,6.82-5.81,5.1-9.32
			c-1.63-3.31-4.69-6.02-2.34-10.67c-0.42,0.04-0.84,0.07-1.26,0.11c-1.82,4.2-3.64,8.41-5.25,12.14c-2.07-0.54-3.62-0.95-5.16-1.36
			c-0.12,1.77-0.34,3.55-0.34,5.32c0,1.19,0.28,2.38,0.29,2.47C284.79,588.14,282.26,591.12,279.56,594.3z M274.55,604.65
			c-1.39-1.47-2.35-3.37-3.31-3.37c-6.58-0.01-13.23,0.1-18.91,4.36c-0.57,0.43-1.05,1.75-0.83,2.35c0.24,0.65,1.35,1.3,2.09,1.32
			c2.28,0.04,4.6-0.03,6.85-0.41c4.61-0.77,9.19-1.71,13.75-2.73c1.14-0.25,2.16-1.08,3.23-1.64c-0.15-0.33-0.31-0.67-0.46-1
			C275.97,603.99,274.98,604.45,274.55,604.65z M256.85,480.74c0.51-0.11,1.03-0.21,1.54-0.32c0.05,0.58-0.06,1.26,0.19,1.73
			c1.1,2.14,2.87,3.71,4.9,1.88c0.79-0.71,0.71-3.62-0.02-4.81c-1.16-1.87-3.09-2.78-5.2-0.5c-0.86,0.94-2.42,1.26-3.72,1.64
			c-1.61,0.47-4.37,0.27-4.69,1.14c-0.57,1.57,0.31,3.71,0.53,5.3C253.94,486.13,258.11,486.84,256.85,480.74z M302.12,478.18
			c-2.42,0.61-4.44,1.09-6.45,1.63c-1.18,0.32-3.14,0.49-3.33,1.16c-0.45,1.58-2.4,4.12,1.29,4.87c0.55,0.11,0.78,2,1.34,3.59
			c3.05-1.86,3.17-8.26,9.35-6.06C303.31,480.98,302.68,479.51,302.12,478.18z M312.97,499.84c-2.8-2.64-5.27-4.96-7.75-7.29
			c-1.77,2.4-3.58,4.85-5.66,7.66c5.96-0.66,5.96-0.66,7.96,2.51C309.47,501.69,311.42,500.66,312.97,499.84z M403.71,644.01
			c-3.11,0.82-6.27,1.66-9.44,2.5c0.09,0.39,0.19,0.78,0.28,1.16c2.85,0.4,2.81,0.38,1.35,3.08c-0.25,0.46-0.24,1.42,0.05,1.77
			c0.69,0.8,2.17,2.09,2.37,1.92c1.54-1.29,3.14-2.7,4.13-4.43C403.24,648.63,403.19,646.74,403.71,644.01z M305.43,578.84
			c1.16,1.53,2.64,2.91,3.42,4.63c1.14,2.52,2.62,2.29,4.39,1.21c1.07-0.65,2-1.55,2.85-2.23c1.53,1.12,2.81,2.06,4.1,3
			c0.19-0.22,0.38-0.45,0.58-0.67c-1.18-2.25-2.36-4.5-3.12-5.93c-2.54,1.64-4.38,2.83-7.02,4.54c1.42-3.6,2.32-5.89,3.22-8.18
			c-0.29-0.12-0.58-0.25-0.87-0.37C310.71,580.42,310.71,580.42,305.43,578.84z M262.23,511.53c-6.25-2.93-7.43-1.76-7.36,7.19
			c2.55-0.49,5.06-0.98,8.66-1.68C259.65,515.5,261,513.44,262.23,511.53z M287.44,697.22c2.25,1.82,3.49,2.83,4.74,3.85
			c1.33-1.83,3.2-3.49,3.78-5.54c0.33-1.16-1.46-2.98-2.29-4.5C291.85,692.83,290.04,694.63,287.44,697.22z M263.46,691.7
			c-5.1,1.58-5.86,5.24-4.85,9.79C263.46,701.7,264.9,698.98,263.46,691.7z M265.48,691.96c-0.17,0.49-0.34,0.98-0.52,1.46
			c1.34,1.15,1.88,3.42,4.8,2.12c1.74-0.78,2.97,0.2,2.59,3.37c1.64-1.3,3.27-2.61,4.91-3.91c-0.2-0.37-0.41-0.75-0.61-1.12
			C272.93,693.24,269.21,692.6,265.48,691.96z M278.08,495.18c0.48,0.31,0.96,0.63,1.44,0.94c2.56-1.14,5.12-2.29,7.62-3.41
			c-1.29-5.77-4.69-2.38-6.88-2.15C279.4,490.66,278.8,493.56,278.08,495.18z M296.58,385.11c-5.69,0-11.47,0-17.89,0
			C284.15,389.19,292.83,388.88,296.58,385.11z M256.58,705.38c0.06,0.41,0.12,0.81,0.18,1.22c11.26,0.13,13.31-0.7,13.34-6.28
			c-1.81,1.15-3.21,2.1-4.67,2.96c-0.79,0.46-1.64,0.93-2.52,1.11C260.82,704.8,258.69,705.05,256.58,705.38z M327.71,493.66
			c-0.59-1.15-1.17-2.16-1.66-3.22c-0.59-1.28-0.85-2.88-1.76-3.78c-0.46-0.45-2.04,0.34-3.11,0.57c0.67,1.22,1.33,2.44,2.01,3.68
			c-0.34,0.22-1.01,0.64-1.71,1.08C324.85,496.63,325.79,496.78,327.71,493.66z M339.02,511.33c0.05,0-0.86,0-2.04,0
			c0.36,1.83,0.66,3.34,0.93,4.74c-1.27,0.75-2.32,1.37-4.43,2.61c2.97,0.59,4.91,1.1,6.86,1.24c0.3,0.02,1.16-1.77,0.99-2.53
			C340.94,515.62,340.07,513.96,339.02,511.33z M386.05,561.57c3.25,3.9,5.45,7.38,9.9,7.75c0.72,0.06,1.49-0.39,2.23-0.61
			c-0.57-0.71-1.02-1.69-1.74-2.08C393.38,565.03,390.24,563.6,386.05,561.57z M256.59,696.98c-0.17-0.48-0.35-0.97-0.52-1.45
			c-3.2,1.24-6.4,2.48-10.21,3.95C250.65,701.63,255,700.4,256.59,696.98z M239.69,480.05c0.16,0.64,0.32,1.28,0.48,1.92
			c2.14-0.29,4.35-0.35,6.39-0.97c0.75-0.23,1.13-1.8,1.67-2.76c-0.98-0.38-2.13-1.31-2.92-1.04
			C243.36,477.86,241.56,479.06,239.69,480.05z M329.11,433.45c-0.28,3.83-0.53,7.23-0.77,10.64c0.17,0.05,0.35,0.09,0.52,0.14
			c0.4-0.89,0.79-1.78,0.94-2.12c1.16,1.47,2.45,3.1,3.73,4.73c0.25-0.37,0.51-0.74,0.76-1.11
			C332.6,441.7,330.9,437.68,329.11,433.45z M268.79,488.7c-2.7-0.75-4.64-1.42-6.64-1.77c-0.87-0.16-1.86,0.26-2.74,0.59
			c-0.15,0.06-0.17,1.33,0,1.4c2.07,0.89,4.14,2.02,6.3,2.28C266.66,491.31,267.81,489.56,268.79,488.7z M299.97,494.39
			c-3.16-3.5-3.16-3.5-9.09-0.13c1.39,0.97,2.63,1.84,3.87,2.71c0.45-0.95,0.9-1.91,1.46-3.08
			C297.05,494,298.15,494.15,299.97,494.39z M264.82,246.23c1.56,1.58,3.08,3.22,4.73,4.69c0.29,0.26,1.34,0,1.71-0.38
			c0.33-0.34,0.44-1.25,0.26-1.76C270.44,245.78,268.12,245.28,264.82,246.23z M269.03,477.24c3.23-0.5,6.42-1,9.61-1.5
			C273.83,471.96,270.44,472.88,269.03,477.24z M141.91,524.87c0.02-0.4,0.04-0.8,0.06-1.2c-4.4,0-8.81,0-13.21,0
			C133.13,528.2,137.53,523.19,141.91,524.87z M170.94,460.3c-2.13,0.44-3.66,0.76-5.46,1.13c0.51,0.81,1,1.85,1.18,1.8
			c3.67-1.13,7.31-2.39,11.13-3.69C175.14,457.54,171.62,458.29,170.94,460.3z M237.6,668.02c5.92,4.95,5.92,4.95,8.73,2.16
			C243.21,669.73,241.59,664.8,237.6,668.02z M234.2,655.86c-0.54,2.49-1.39,4.69-1.3,6.83c0.04,0.88,2.12,1.66,3.27,2.48
			c0.21-0.37,0.42-0.74,0.63-1.11c-0.78-0.73-1.56-1.45-2.51-2.35c1.33-0.96,2.39-1.72,3.53-2.55
			C236.74,658.17,235.9,657.41,234.2,655.86z M305.57,606.18c-0.96,2.55-0.12,4.2,3.07,4.27c1.02,0.02,2.03,0.1,3.05,0.15
			c-0.86-1.14-1.57-2.48-2.64-3.34C308.23,606.61,306.95,606.58,305.57,606.18z M261.16,688.93c-0.56-0.65-1.11-1.31-1.67-1.96
			c-1.59,1.5-3.18,3-4.77,4.51c0.59,0.57,1.58,1.71,1.7,1.62C258.07,691.8,259.6,690.35,261.16,688.93z M365.43,577.33
			c-0.3,7.15,0.54,10.34,2.66,11.91c-0.26-1.38-1.39-3.56-0.79-4.85C368.7,581.38,367.64,579.57,365.43,577.33z M387.9,590.2
			c-0.92,0.29-2.02,0.63-3.77,1.18c2.96,2.1,5.33,3.77,7.7,5.44c0.17-0.19,0.34-0.38,0.51-0.57
			C390.94,594.34,389.53,592.42,387.9,590.2z M332.77,541.83c-0.3,0.14-0.61,0.29-0.91,0.43c0,2.24-0.08,4.48,0.05,6.71
			c0.04,0.6,0.72,1.16,1.11,1.74c0.47-0.52,1.39-1.11,1.32-1.54C333.95,546.7,333.32,544.27,332.77,541.83z M269.55,326.52
			c-0.05,0.39-0.1,0.77-0.15,1.16c2.33,1.01,4.66,1.87,6.89-1.16C274.04,326.52,271.79,326.52,269.55,326.52z M317.74,482.79
			c0.03-0.42,0.07-0.83,0.1-1.25c-1.37-0.72-2.69-1.66-4.14-2.03c-0.53-0.14-1.38,1.08-2.08,1.67c1.25,0.87,2.43,1.95,3.79,2.53
			C315.98,483.95,316.95,483.13,317.74,482.79z M228.35,670.28c0.14-0.28,0.28-0.56,0.42-0.84c-1.47-1.03-2.93-2.06-4.4-3.08
			c-0.43,0.49-0.86,0.99-1.3,1.49c1.26,1.78,2.53,3.56,3.79,5.34c0.26-0.19,0.53-0.38,0.79-0.57c-0.33-0.92-0.65-1.84-1.09-3.06
			C227.45,669.91,227.9,670.1,228.35,670.28z M389.13,583.58c2.55,1.45,4.4,2.49,6.24,3.54c0.2-0.22,0.4-0.43,0.61-0.65
			c-0.62-1.52-1.24-3.04-1.85-4.53C392.74,582.4,391.66,582.75,389.13,583.58z M305.17,510.06c-1.51-2.45-2.54-4.14-3.58-5.83
			c-0.42,0.15-0.84,0.29-1.26,0.44c0.3,1.87,0.48,3.78,1.04,5.55C301.47,510.5,303.33,510.16,305.17,510.06z M358.62,461.69
			c-0.41,0.23-0.82,0.45-1.23,0.68c1.62,3.9,3.23,7.8,4.85,11.7c0.3-0.13,0.59-0.27,0.89-0.4
			C361.62,469.68,360.12,465.68,358.62,461.69z M356.59,470.31c0.3-0.44,0.59-0.89,0.89-1.33c-2.62-1.63-5.25-3.25-7.87-4.88
			c-0.21,0.33-0.41,0.67-0.62,1C351.52,466.83,354.06,468.57,356.59,470.31z M371.98,640.27c-1.88,0.58-3.28,1.01-4.87,1.51
			c0.53,2.03,1,3.83,1.45,5.56C369.7,644.99,370.68,642.95,371.98,640.27z M374.63,580.93c-3.61,2.29-3.97,5.94-1.58,8.24
			C373.51,586.78,374.02,584.1,374.63,580.93z M441.26,500.49c-0.12,0.55-0.23,1.09-0.35,1.64c1.94,0.48,3.89,0.97,5.83,1.45
			c0.12-0.55,0.24-1.1,0.36-1.66C445.16,501.45,443.21,500.97,441.26,500.49z"/>
		<path class="st0" d="M193.69,289.82c-1.1,0.51-2.9,0.75-3.19,1.56c-2.6,7.52-5.85,14.96-0.86,23c1.62,2.6,2.1,6.09,2.69,9.26
			c1.15,6.17,2.02,12.4,3.01,18.68c1.55-0.89,3.21-1.84,4.87-2.79c0.2,0.24,0.39,0.47,0.59,0.71c-0.3,0.67-0.67,1.32-0.89,2.03
			c-0.37,1.19-0.63,2.42-0.94,3.63c1.12,0.1,2.46,0.66,3.29,0.19c1.06-0.59,2.33-1.94,2.43-3.06c0.28-3.38-0.05-6.81,0.02-10.22
			c0.08-3.54,1.22-7.35,0.29-10.52c-0.96-3.28,0.24-5.6,0.8-8.34c0.26-1.3,0.34-2.71,0.17-4.02c-0.36-2.84-0.93-5.66-1.38-8.32
			c-0.15,0.2-0.68,0.9-1.21,1.61c-0.19-0.14-0.38-0.27-0.57-0.41c0.56-1.41,1.12-2.82,1.81-4.54c1,0.35,1.88,0.65,2.8,0.97
			c0.22-0.6,0.45-1.22,0.93-2.52c0.38,1.62,0.61,2.64,0.98,4.25c1.21-4.91,2.04-9.29,3.42-13.46c0.87-2.63,2.45-5.04,3.97-7.35
			c0.4-0.61,1.88-0.87,2.68-0.62c0.55,0.17,1.17,1.54,1.07,2.28c-0.46,3.47-1.49,6.88-1.7,10.35c-0.27,4.38-3.57,8.9,0.38,13.29
			c0.48,0.54-0.49,2.41-0.62,3.69c-0.12,1.13-0.11,3.27-0.01,3.28c2.95,0.28,3.18,3.25,4.73,4.81c1.54,1.55,4.22,1.86,6.64,2.81
			c0.54-0.99,1.07-1.96,1.84-3.37c0.87,1.18,1.49,2.01,2.32,3.12c4.31-2.92,8.36-2.67,12.95,0.21c3.2,2.01,7.49,2,11.09,3.45
			c1.95,0.78,3.75,2.5,4.99,4.28c0.31,0.44-1.55,3.27-2.91,4.11c-3.51,2.17-7.2,4.15-11.04,5.53c-1.07,0.38-2.9-1.58-4.51-2.54
			c-0.09,0.53-0.32,1.87-0.55,3.23c-7.12-2.84-11.99,0.27-16.12,7.06c-0.28-2.18-0.44-3.43-0.52-4.04c-1.82-1.73-3.3-3.12-5.53-5.23
			c-4.23,0.54-4.18,5.9-4.79,9.29c-0.84,4.69,0.1,9.79,0.66,14.66c0.34,2.97-1.37,4.58-4.83,3.62c0,1.34,0,2.6,0,3.8
			c-1.41,0.83-2.73,1.61-3.59,2.12c-1.5-1.49-3.23-4.36-4.36-4.12c-4.15,0.88-8.64-0.62-12.21,4.63
			c-4.67,6.89-5.75,14.82-8.69,22.16c-1.36,3.42-0.52,6.68,2.52,9.33c-2.78-1.69-4.71-0.82-6.54,1.52
			c-2.75,3.51-5.74,6.81-8.63,10.2c-0.09,0.1-0.21,0.19-0.25,0.31c-3.02,8.82-9.69,15.24-13.68,23.72c1.58-1.14,3.16-2.28,4.75-3.42
			c0.26,0.34,0.53,0.67,0.79,1.01c-10.16,8.65-20.33,17.29-30.49,25.94c0.27,0.59,0.54,1.17,0.81,1.76c2.57-0.97,5.1-2.09,7.73-2.85
			c2.86-0.84,5.79-1.53,8.73-1.94c2.93-0.4,5.92-0.36,8.97,0.16c-3.22,0.39-6.55,0.34-9.63,1.25c-5.45,1.61-10.74,3.79-16.09,5.76
			c-0.34,0.12-0.69,0.48-0.85,0.82c-3.04,6.39-6.05,12.8-5.8,20.23c-1.84,2.6-3.68,5.2-5.52,7.8c0.33,0.22,0.66,0.43,0.99,0.65
			c3.6-1.65,6.37-3.77,4.41-8.56c3.66-3.14,2.54,3.34,4.56,2.22c1.91-1.69,3.62-3.79,5.8-4.93c1.73-0.91,3.15-5.1,5.34-2
			c3.67-1.81,7.03-3.51,10.42-5.14c4.31-2.07,9.33-2.75,11.71-8.19c0.93-2.13,3.48-2.13,4.83,0.01c1.29,2.04,2.44,1.71,4.19,0.96
			c2.59-1.11,5.89-0.64,7.47-3.93c0.17-0.35,1.15-0.7,1.33-0.53c2.5,2.3,5.23,1.27,7.94,0.74c1.27-0.25,2.54-0.45,3.8-0.72
			c0.75-0.16,1.47-0.57,2.22-0.61c3.62-0.21,7.24-0.46,10.85-0.46c2.29,0,4.59,0.67,6.86,0.59c1.64-0.06,3.25-0.86,5.33-1.47
			c-1.65-0.97-2.8-1.65-3.94-2.32c0.1-0.35,0.21-0.7,0.31-1.05c4.86,1.35,9.72,2.69,15.45,4.28c-0.52-1.74-0.85-2.88-1.18-4
			c2.4,1.23,4.71,2.84,7.23,3.52c1.29,0.35,2.99-0.97,4.51-1.54c1.3-0.03,2.6-0.14,3.89-0.06c1.97,0.12,4,0.11,5.89,0.62
			c4.2,1.13,8.32,2.58,12.5,3.78c0.19,0.05,0.7-1.11,1.12-1.81c1.82,1.6,1.12,6.36,5.54,4.07c0.21,2.73-0.37,3.69-3.23,3.29
			c-3.28-0.46-7.47-1.34-9.84,0.27c-3.8,2.58-8.37-0.04-11.53,3.49c-0.22-0.31-0.43-0.62-0.65-0.93c1.61-1.65,3.21-3.31,5.12-5.27
			c-0.68-2.04-1.66-2.81-4.85-0.77c-3.44,2.2-6.67-0.25-9.92,0.63c-0.21,0.06-1.01-1.26-1.1-2c-0.1-0.82,0.29-1.72,0.54-2.94
			c-2.02,0.59-3.65,0.61-4.54,1.47c-0.85,0.82-1.65,3.16-1.2,3.72c2.26,2.83-0.82,3.71-0.74,5.63c-0.34-0.09-0.68-0.18-1.02-0.27
			c0.22-1.03,0.44-2.07,0.67-3.18c-1.53,0-2.84,0-4.15,0c-0.04-0.29-0.09-0.57-0.13-0.86c0.91-0.54,1.82-1.09,2.72-1.63
			c-0.14-0.29-0.29-0.57-0.43-0.86c-1.54,0.88-3.08,1.75-4.95,2.82c-1.27-1.88-2.59-3.85-4.1-6.1c-0.58,0.44-1.32,1.01-2.26,1.73
			c1.44,2.19,2.77,4.21,4.67,7.11c-1.87-0.16-3.46-0.29-5.05-0.42c0.01-0.28,0.02-0.56,0.04-0.84c-2.29,1.27-4.58,2.53-6.87,3.8
			c-0.17-0.31-0.33-0.62-0.5-0.94c1.18-0.94,2.36-1.87,4.15-3.29c-2.09-0.46-3.32-0.74-4.6-1.02c-1.59,5.36-1.18,6.25,3.36,6.93
			c-0.54,0.81-1.09,1.62-2.37,3.52c3-0.39,4.97-0.64,7.62-0.99c-0.99,1.13-1.79,2.03-2.56,2.95c-0.57,2.16-1.48,3.26-4.15,0.3
			c0.49,2.57,0.79,4.16,1.13,5.93c-0.94,0.67-1.93,1.38-2.93,2.1c1.94-0.21,3.66-0.92,5.3-1.81c1.03-0.56,1.9-1.44,2.88-2.12
			c0.86-0.59,1.77-1.1,2.66-1.65c-0.79-0.39-1.61-0.74-2.38-1.17c-0.88-0.5-1.72-1.07-2.58-1.61c2.17-0.39,5.22,1.12,5.71-2.9
			c1.27,0.29,2.55,0.59,4.45,1.03c-1.37,1.01-1.92,1.42-2.49,1.83c0.3,0.43,0.42,0.8,0.59,0.82c3.53,0.37,7.15,1.59,10.11-2.04
			c0.41-0.5,3.03,0.31,4.06,1.22c0.9,0.81,1.01,2.6,1.63,4.46c-1.62,0-2.65,0-3.71,0c0.63,1.09,1.25,2.15,1.87,3.21
			c-3.79-0.78-6.87-1.04-10.11,0.7c-1.1,0.59-2.87-0.21-4.49,0.43c2.74,0.68,5.48,1.37,8.24,2.07c-0.79,0.43-1.58,0.86-2.39,1.24
			c-1.16,0.55-2.33,1.06-3.5,1.58c0.15,0.53,0.31,1.07,0.46,1.6c2.75-0.17,5.5-0.33,8.25-0.5c0.04-0.37,0.08-0.74,0.12-1.11
			c-1.01-0.96-2.02-1.92-3.02-2.88c3,1.38,6,2.76,8.98,4.12c-0.6,1-1.1,1.84-1.6,2.68c0.52,0.33,1.42,1.03,1.51,0.92
			c1.04-1.14,1.96-2.4,3.18-3.97c0.82,1.6,1.38,4.33,2.89,5.16c1.39,0.76,3.81-0.51,6.38-1.01c-1.27,1.71-2.46,3.31-3.64,4.91
			c-0.25,0.24-0.5,0.48-0.75,0.72c-1.03,0.5-2.32,1.69-3.04,1.39c-4.92-2.05-7.75,1.03-9.75,4.68c-1.92,3.51-4.98,3.21-6.98,2.05
			c-2.21-1.29-3.81-0.35-5.71-0.44c-3.43-0.15-6.91-0.51-10.25-1.31c-8.17-1.95-16.11,0.96-24.17,0.98
			c-4.9,0.01-9.81,0.24-14.71,0.51c-0.78,0.04-1.54,0.74-2.27,1.21c-1.62,1.03-3.13,2.81-4.83,3.02
			c-5.48,0.67-11.03,0.76-16.09,1.05c-0.03,0.51-0.14,2.02-0.24,3.53c-0.35,0.01-0.7,0.03-1.05,0.04c-0.23-1.05-0.45-2.1-0.7-3.25
			c-0.31-0.1-0.68-0.37-1.01-0.32c-5,0.71-10,1.4-14.98,2.24c-1.88,0.32-4.04,0.79-2.86,2.79c-2.5,0.7-5.39,1.11-7.91,2.33
			c-2.92,1.42-5.96,3.12-8.18,5.49c-3.24,3.46-5.79,7.63-8.9,11.86c-0.61-1.66-1.35-3.65-2.37-6.41c-1.65,2.62-3.06,4.86-4.7,7.48
			c1.55,1.7,2.95,3.24,4.07,4.47c4.55-3.37,8.55-6.34,12.56-9.31c0.35,0.3,0.71,0.6,1.06,0.9c-0.48,1.52-0.96,3.03-1.44,4.55
			c0.12,0.1,0.24,0.2,0.36,0.3c0.99-1.28,1.97-2.55,3.15-4.08c2.18,1.07,6.43,0.68,5.54,4.44c-1.24,5.27-5.29-0.1-8.8,1.93
			c-0.54,2.29-1.3,5.52-1.85,7.85c1.63,1.98,3.12,3.63,4.42,5.43c1.23,1.71,2.3,2.56,3.97,0.5c3.69-4.56,4.26-5.39,11.46,0.08
			c1.27-2.6,2.5-5.1,4.04-8.24c0.26,2.53,0.48,4.64,0.75,7.33c2.25-0.85,4.37-1.66,6.47-2.46c2.61,5.99,1.11,8.28-5.26,8.27
			c-0.73,0-1.71,0.58-2.1,1.21c-0.3,0.48,0.15,1.47,0.29,2.37c-13.13,1.84-26.69,3.74-40.25,5.64c-0.11,0.37-0.21,0.74-0.32,1.11
			c2.9,1.02,5.8,2.05,8.7,3.07c0.3-0.38,0.59-0.76,0.89-1.13c0,1.12,0,2.24,0,3.36c-1.17,0.9-2.59,1.63-3.36,2.81
			c-0.25,0.38,1.21,1.98,2.42,3.85c0.38-3.1,0.61-4.94,0.84-6.78c2.24,1.18,4.49,2.35,6.73,3.53c-0.14,0.54-0.28,1.07-0.42,1.61
			c-1.23,0.21-2.46,0.41-3.49,0.59c2.08,1.72,4.4,3.64,6.72,5.55c0,0-0.14-0.14-0.14-0.14c0.8,2.4,1.6,4.79,2.85,8.53
			c-3.89,0-6.97-0.03-10.04,0.01c-1.79,0.03-3.65-0.09-5.35,0.37c-0.89,0.25-1.5,1.61-1.97,2.75c-1.6,0.71-4.76-0.59-3.83,3.72
			c0.08,0.39-0.68,1.18-1.21,1.49c-3.31,1.92-3.47,5.46-4.33,8.72c-0.77,2.93-3.19,6.04-2.66,8.55c0.98,4.64-1.83,7.32-3.62,10.14
			c-3.46,5.43-7.53,10.58-12.03,15.1c-3.05,3.06-7.29,4.8-10.93,7.25c-0.92,0.62-1.57,1.68-2.35,2.53c0.26,0.39,0.52,0.78,0.78,1.17
			c1.27-0.8,2.54-1.6,4.06-2.55c0.03,0.11,0.23,0.79,0.66,2.28c1.72-0.95,4.01-1.61,5.46-3.15c4.63-4.89,9.04-10.02,13.34-15.23
			c3.58-4.33,6.9-8.89,10.56-13.64c0.7,1.33,1.48,3.12,2.5,4.74c2.65,4.22,5.42,8.12,10.88,8.84c4.18,0.55,5.21,2.38,4.31,8.14
			c-0.5,3.24,0.11,5.21,2.91,6.38c-3.72,8.69-0.4,16.75,5.71,22.02c1.84,1.58,4.8,1.84,7.3,2.46c6.32,1.55,12.65,3.56,18.99,0.79
			c0.34,1.44,0.35,2.68,0.93,3.41c0.29,0.36,1.98,0.13,2.46-0.41c3.52-3.94,8.33-3.51,12.57-3.43c6.72,0.13,13.42,1.45,20.13,2.29
			c0.74,0.09,1.59,0.71,2.19,0.48c8.35-3.19,16.65-0.43,24.89,0.45c3.86,0.41,7.65,2.33,11.29,4.01c2.36,1.09,4.39,2.99,6.72,4.63
			c0.05-0.05,0.45-0.23,0.61-0.55c0.99-1.91,1.14-4.99,4.3-4.12c2.68,0.74,5.94,6.82,4.34,8.63c-1.64,1.87-4.64,2.69-7.18,3.34
			c-2.04,0.52-4.3,0.11-6.53,0.69c6.78,0.75,13.56,1.5,20.34,2.25c-0.03,0.35-0.05,0.7-0.08,1.05c-4.68,0.45-9.35,0.92-14.03,1.35
			c-5.85,0.54-11.7,1.03-17.55,1.64c-0.71,0.07-1.36,0.75-2.03,1.14c-0.52,0-1.04,0-1.56,0c-0.39-0.52-0.74-1.46-1.16-1.5
			c-3.46-0.29-7-0.16-9.51-3.46c-0.2-0.26-1.29,0.29-1.98,0.37c-1.39,0.15-2.79,0.28-4.19,0.33c-1.52,0.06-3.04,0.01-4.56,0.01
			c-0.03,0.36-0.06,0.72-0.08,1.08c-2.14-0.63-4.38-2.89-5.98,1.22c-0.37,0.95-3,0.93-4.59,1.35c-0.1-0.38-0.2-0.77-0.3-1.15
			c0.78-0.4,1.56-0.8,2.24-1.15c-2.54-1.74-7.05,5.46-8.27-3.17c-4.29,6.91-9.89,2.87-14.77,3.57c3.64,0.83,7.28,1.66,10.91,2.48
			c-41.71,0-83.43,0-125.14,0c0-169.67,0-339.33,0-509c58.92,0,117.84,0,176.76,0c-2.81,5.84-5.57,11.71-8.44,17.52
			c-1.19,2.4-2.8,4.57-3.9,7.01c-4.45,9.86-7.62,20.07-7.26,31.17c0.03,0.81,0.15,1.71-0.12,2.42c-2.62,6.98-2,13.98-0.62,21.12
			c0.41,2.12-0.51,4.52-0.82,6.79C193.59,289.92,193.69,289.82,193.69,289.82z M95.56,560.23c-4.2,0.43-7.89,7.16-7.94,15.02
			c1.39-0.19,2.73-0.37,3.68-0.5C92.79,569.67,94.14,565.06,95.56,560.23z M217.04,494.99c-0.52,3.16-0.95,5.77-1.37,8.37
			c2.03-1.38,3.69-2.51,5.34-3.62C219.83,498.32,218.62,496.88,217.04,494.99z M56.22,654.71c1.6-2.52,3.04-4.78,4.44-6.99
			c-2.2,0.9-4.34,1.78-6.18,2.53C55.01,651.63,55.54,652.98,56.22,654.71z"/>
		<path d="M163.14,712.89c-3.64-0.83-7.28-1.66-10.91-2.48c4.88-0.7,10.48,3.34,14.77-3.57c1.22,8.63,5.73,1.43,8.27,3.17
			c-0.69,0.35-1.47,0.75-2.24,1.15c0.1,0.38,0.2,0.77,0.3,1.15c1.59-0.42,4.22-0.4,4.59-1.35c1.6-4.11,3.84-1.85,5.98-1.22
			c0.03-0.36,0.06-0.72,0.08-1.08c1.52,0,3.04,0.04,4.56-0.01c1.4-0.05,2.8-0.18,4.19-0.33c0.69-0.07,1.78-0.63,1.98-0.37
			c2.51,3.29,6.04,3.17,9.51,3.46c0.42,0.04,0.78,0.98,1.16,1.5C191.3,712.89,177.22,712.89,163.14,712.89z"/>
		<path class="st0" d="M349.29,712.89c1.04-2.85,2.59-3.88,5.7-2.85c1.68,0.56,3.98-0.07,5.74-0.83c2.66-1.14,5.64,0.08,6.55,3.19
			c0,0.06,0,0.22,0,0.49C361.28,712.89,355.28,712.89,349.29,712.89z"/>
		<path d="M374.32,712.89c4.68-2.55,9.36-5.1,15.03-8.18c-1.31,3.25-2.31,5.72-3.3,8.18C382.14,712.89,378.23,712.89,374.32,712.89z
			"/>
		<path d="M333.56,293.87c-0.38-0.79-0.77-1.58-1.3-2.67c-1.28,1.13-2.35,2.03-3.37,3c-2.44,2.32-1.95,5.02,1.23,6.14
			c2.76,0.97,5.84,1.21,8.33,2.64c1.81,1.03,3.73,3.3,4.09,5.31c0.53,2.92-0.43,5.96-3.88,7.1c-2.83,0.94-5.6,2.11-9.29,3.52
			c2,0.29,3.03,0.43,4.06,0.58c0.15,0.46,0.3,0.91,0.46,1.37c-4.67,2.16-9.41,4.18-14,6.51c-7.8,3.96-13.24-0.51-17.85-5.93
			c-3.4-4-4.85-9.13-3.2-14.79c1.38-4.72,2.75-9.4,1.56-14.59c-1.02-4.46,0.61-5.7,4.99-5.8c4.1-0.09,8.19-0.79,12.28-1.23
			c0.38-0.04,0.8-0.39,1.11-0.28c4.63,1.57,9.3,3.04,13.81,4.93c1.05,0.44,1.52,2.39,2.25,3.64
			C334.42,293.49,333.99,293.68,333.56,293.87z M326.54,317.18c0.3,0.32,0.59,0.64,0.89,0.96c1.83-0.88,3.86-1.5,5.39-2.77
			c0.74-0.62,0.54-2.47,0.77-3.77c-1.35-0.11-3.35-0.86-3.92-0.21C328.28,312.99,327.54,315.21,326.54,317.18z M321.77,307.02
			c1.46,4.24,2.91,4.12,6.03-0.85C325.84,306.45,323.88,306.73,321.77,307.02z"/>
		<path d="M445.71,425.43c1.45-0.52,2.47-0.89,3.88-1.39c-0.45,1.29-0.79,2.24-1.23,3.48c2.12-1.37,4.07-2.63,6.01-3.89
			c0.2,0.21,0.39,0.42,0.59,0.63c-1.19,1.17-2.45,2.27-3.54,3.53c-1.12,1.31-2.27,2.67-3.03,4.21c-0.67,1.35-3.21,3.6,1.95,3.68
			c-0.24,0.37-0.48,0.73-0.72,1.1c-4.81,2.22-9.61,4.43-15.57,7.18c0-4.98-0.11-9.08,0.02-13.17c0.2-6.37,0.37-12.76,0.91-19.1
			c0.63-7.28,1.22-14.62,2.66-21.74c0.96-4.78,4.9-6.59,8.2-4.99c3.41,1.66,4.74,6.12,2.51,9.94c-2.75,4.7-3.06,9.62-2.7,14.91
			C445.98,414.86,445.71,419.95,445.71,425.43z"/>
		<path d="M302.22,264.87c-1.6-2.77-3.2-5.54-4.8-8.31c8.14,4.44,13.15-0.32,17.41-5.08c1.96,0,3.32,0.04,4.68-0.02
			c0.49-0.02,0.98-0.42,1.46-0.4c1.42,0.04,8.92,7.43,8.46,8.67c-1.74,4.66-3.67,9.27-5.99,13.64c-0.49,0.92-3.23,1.47-4.32,0.91
			c-2.81-1.45-6.3,0.82-8.75-2.08c-0.31-0.37-1.47,0.14-2.23,0.08c-3.65-0.26-7.66,0.28-10.81-1.18c-1.9-0.88-2.54-4.89-3.53-7.58
			c-0.1-0.26,1.22-1.47,1.97-1.59c0.68-0.1,1.59,0.56,2.22,1.11c1.07,0.91,2,2,2.99,3.02C301.39,265.67,301.8,265.27,302.22,264.87z
			"/>
		<path d="M323.08,400.11c0.27-3.81,1.13-7.31,3.78-10.35c4.12-4.72,7.91-9.76,12.32-15.25
			C336.26,385.2,328.71,391.93,323.08,400.11z"/>
		<path d="M346.28,443.37c0.76-0.57,1.53-1.13,2.29-1.7c0,0-0.13-0.13-0.13-0.13c1.98,4.51,3.96,9.01,5.94,13.52
			C351.69,451.17,348.99,447.27,346.28,443.37z"/>
		<path d="M411.47,597.51c-7.2,4.74-7.2,4.74-9.02,1.46C405.26,598.52,407.88,598.09,411.47,597.51z"/>
		<path d="M324.76,419.46c0,0,0.2,0.19,0.2,0.19c-1.99-1.97-3.99-3.94-5.98-5.91c0.35-0.41,0.71-0.82,1.06-1.23
			c2.8,2.54,5.59,5.07,8.39,7.61c-0.26,0.35-0.52,0.71-0.78,1.06C326.69,420.6,325.72,420.03,324.76,419.46z"/>
		<path d="M340.91,429.12c0,0,0.12,0.12,0.12,0.12c0.53,1.66,1.07,3.32,1.6,4.97c-3.26-3.3-6.51-6.59-9.77-9.89
			c0.22-0.23,0.44-0.46,0.65-0.69C335.99,425.47,338.45,427.29,340.91,429.12z"/>
		<path class="st0" d="M342.64,434.21c-0.53-1.66-1.07-3.32-1.6-4.97c1.7,2.11,3.42,4.22,5.06,6.39c0.02,0.03-0.85,0.81-1.31,1.22
			C344.05,435.96,343.34,435.09,342.64,434.21z"/>
		<path class="st0" d="M346.28,443.37c2.7,3.9,5.4,7.8,8.11,11.69c0,0.05,0.08,0.11,0.23,0.19c-0.54,0.09-1.47,0.43-1.57,0.25
			c-2.26-4.05-4.43-8.15-6.62-12.25C346.43,443.25,346.28,443.37,346.28,443.37z"/>
		<path class="st0" d="M111.58,594.6c0,0,0.14,0.13,0.14,0.14c0.1-1.81,0.18-3.63,0.29-5.44c0.11-1.69,0.24-3.38,0.44-6.06
			c-0.38,0.33,0.15-0.51,0.59-0.47c8.34,0.78,13.13-8.17,21.04-8.39c3.8-0.1,7.62,0.2,11.42,0.21c2.52,0.01,5.47,0.65,7.45-0.48
			c1.82-1.04,5.57,0.52,5.48-3.28c-0.06-2.47-1.01-4.92-1.67-7.89c4.73-2.74,3.09-8.4,3.78-13.29c5.61,0.34,10.85,0.08,15.82,1.15
			c3.58,0.77,6.77,3.42,10.23,5c1.35,0.62,3.78,1.37,4.33,0.74c3.56-4.13,3.88-4.27,7.31,0.55c2.82-3.5,5.53-6.86,8.23-10.22
			c-0.19-0.3-0.39-0.61-0.58-0.91c-1.8,1.06-3.6,2.11-5.4,3.17c0.09-0.36,0.19-0.71,0.28-1.07c-3.07-0.71-6.19-2.19-9.2-2.01
			c-14.93,0.93-29.84,2.2-44.73,3.59c-3.59,0.33-7.11,1.56-10.66,2.35c-3.4,0.76-6.81,1.48-11.08,2.41c1.41-1.7,2.14-2.58,2.96-3.57
			c-4.65-1.98-4.78-6.67-2.03-10.44c4.45-6.09,10.99-5.85,16.74-6.7c16.31-2.39,32.75-3.78,49.15-5.44c2.95-0.3,5.96-0.06,8.94-0.02
			c5.36,0.06,7.46,3.33,6.3,8.79c-0.46,2.16,0.38,4.63,0.64,7.09c4.1-1.89,7.54-0.94,12.18,3.31c-1.65,0.47-3.21,0.6-4.43,1.35
			c-1.12,0.69-1.86,2.04-2.78,3.12c3.73,3,4.6,2.55,8.79-4c1.98,0.6,3.94,1.2,6.47,1.97c-0.09-1.5,0.21-2.8-0.28-3.44
			c-1.49-1.94-0.56-3.34,0.37-5.02c0.51-0.91,0.42-2.16,0.7-3.23c0.29-1.13,0.39-2.72,1.11-3.2c0.91-0.6,2.47-0.61,3.57-0.25
			c1.34,0.44,0.44,2.4,0.55,2.63c2.76,5.68-0.57,13.86,6.68,17.73c1.99,1.06,3.48,3.17,5.25,4.84c7.98-5.03,9.37-12.7,8.72-22.65
			c2.87,1.9,5.46,3.03,7.26,4.97c1.67,1.8,2.49,4.46,3.68,6.74c-0.27,0.16-0.54,0.33-0.81,0.49c-1.57-2.67-3.13-5.34-4.7-8
			c-0.36,0.14-0.71,0.29-1.07,0.43c0.39,1.38,0.78,2.77,1.27,4.53c-4.28,4.59-4.63,9.82-0.9,15.5c0.55,0.84,0.12,2.55-0.16,3.79
			c-0.92,4.08-2.7,8.11-2.81,12.19c-0.18,6.83-3.84,10.18-7.7,12c-4.09-1.55-7.04-2.96-10.14-3.77c-2.74-0.72-5.77-0.34-8.44-1.21
			c-6.84-2.23-12.97,1.57-19.47,2.1c-3.73,0.3-7.4,1.52-11.09,2.38c-3.5,0.82-6.98,1.73-11.53,2.87c1.34,1.44,2.07,2.94,2.94,3.03
			c4.39,0.46,7.38,4.87,6.25,9.66c-0.12,0.5-0.33,0.97-0.76,2.17c4.55-0.82,8.57-1.82,12.64-2.18c4.42-0.4,8.89-0.2,13.34-0.25
			c0.77-0.01,1.6,0.26,2.31,0.05c3.28-0.99,5.66-0.64,6.23,3.63c0.09,0.66,1.73,1.79,2.25,1.58c3.41-1.35,3.88,1.5,5.01,3.45
			c-0.08,0.33-0.1,0.6-0.21,0.84c-2.76,6.13-9.19,6.5-13.88,9.57c-17.22,11.25-34.58,22.26-51.9,33.34c-2,1.28-4.06,2.45-6.07,3.71
			c-1.87,1.17-4.23,1.97-3.15,5.23c0.19,0.59-0.7,2.26-1.05,2.25c-5.83-0.23-7.8,6.17-12.59,7.76c-2.65-3.49-4.98-0.14-8,1.16
			c0.38-1.54,0.6-2.48,0.81-3.33c-1.02-0.42-2.17-0.88-3.8-1.55c2.46-0.88,4.26-1.2,5.66-2.16c0.77-0.53,0.88-2.13,1.51-3.86
			c-2.5,1.69-4.3,2.91-6.1,4.13c-0.17-0.28-0.35-0.56-0.52-0.84c1.85-1.61,3.71-3.23,5.13-4.46c-0.76-1.87-1.33-3.78-2.26-5.48
			c-2.59-4.71-5.25-9.38-8.03-13.97c-2.66-4.38-6.99-8.34-7.86-13.03c-0.97-5.2-5.1-7.43-6.59-11.71c-0.48-1.39-1.53-2.56-2.05-3.95
			c-1.92-5.06-1.08-6.51,4.1-6.61c6.72-0.14,13.45-0.03,20.4-0.88c-1.18-0.96-2.4-1.87-3.55-2.87c-4.92-4.29-6.46-9.72-4.77-16.14
			c1.6-6.08,6.76-6.63,11.39-7.73c4.04-0.96,8.16-1.5,11.71-2.12c2.27,1.81,4.38,3.5,6.5,5.19c-5.16-0.62-10.31-1.34-15.48-1.83
			c-4.69-0.44-8.7,1.04-11.58,5.13c3.37,6.89,6.68,13.68,10.46,21.42c2.17-2.43,3.39-3.79,4.6-5.15c0.08,0.08,0.16,0.16,0.24,0.24
			c-1.02,1.67-2.03,3.34-3.4,5.59c3.89,0.51,7.28,1.15,10.69,1.32c1.31,0.06,2.72-0.81,3.98-1.47c4.02-2.1,8.04-4.2,11.95-6.52
			c1.05-0.62,2.4-2.04,2.35-3.02c-0.06-1.23-1.33-2.47-2.26-3.53c-0.48-0.54-1.35-0.7-2.04-1.03c0.38-0.15,0.77-0.3,1.15-0.45
			c-0.45-1.91-0.9-3.82-1.35-5.72c1.78,1.39,3.55,2.79,5.33,4.18c0.32-0.35,0.65-0.71,0.97-1.06c-1.4-4.12-2.81-8.25-4.1-12.03
			c-0.75,3.33-1.4,6.23-2.06,9.14c-0.33-0.97-0.87-1.91-0.95-2.9c-0.1-1.35,0.15-2.74,0.25-4.11c-1.3,0.61-2.66,1.13-3.9,1.86
			c-1.73,1-3.4,3.26-4.97-0.15c0.94-1.3,2.21-2.48,2.64-3.95c0.15-0.51-1.71-1.8-2.77-2.54c-8.01-5.63-17.35-2.68-26.01-4.12
			c-2-0.33-4.6,1.66-6.56,3.12c-2.29,1.72-4.24,3.97-6.2,6.13c-0.66,0.73-1.44,2-1.26,2.8c0.62,2.69-1.08,3.57-2.45,5.28
			C117.71,595.84,114.59,594.38,111.58,594.6z M237.75,578.02c1.47,1.76,2.57,3.5,4.07,4.66c0.62,0.48,2.61,0.15,3.13-0.53
			c4.04-5.23,4.08-14.22,0.24-19.87c-0.47-0.7-1.44-1.72-1.94-1.59c-1.95,0.52-5.51,1.8-5.44,2.15c0.6,3.06-3,6.33,0.29,9.12
			C240.45,573.97,241.1,575.94,237.75,578.02z M222.04,549.53c0,2.22-0.15,4.09,0.05,5.9c0.15,1.34,0.78,2.63,1.19,3.94
			c1.05-0.61,2.25-1.07,3.13-1.88c1.16-1.08,2.07-2.44,3.72-4.45c0.36,2.22,0.52,3.23,0.68,4.26c5.73-5.06,4.06-10.74,2.02-16.49
			c-0.68,0.17-1.4,0.35-2.11,0.53C232.24,548.65,230.37,553.19,222.04,549.53z M251.25,567.91c0.15,2.55,1.01,5.33,0.29,7.54
			c-1.09,3.31,0.38,3.67,2.56,4.18C256.32,574.53,254.93,568.95,251.25,567.91z M200.34,559.69c-1.07-0.31-3.38-2.04-3.24,1.8
			c0.11,3.16,0.72,6.3,1.14,9.72c0.31,0.02,1.01,0.27,1.52,0.03c0.64-0.3,1.11-0.98,1.65-1.5c-0.35-0.05-0.7-0.11-1.06-0.16
			C200.34,566.47,200.34,563.37,200.34,559.69z M216.99,572.67c-2.46-5.26-3.26-5.31-6.66-1.07
			C212.75,571.99,214.87,572.33,216.99,572.67z M136.04,550.2c0.05-0.32,0.09-0.65,0.14-0.97c-1.85-0.41-3.7-1.01-5.56-1.11
			c-0.57-0.03-1.2,1.32-1.81,2.03c0.69,0.47,1.43,1.39,2.07,1.32C132.63,551.27,134.33,550.65,136.04,550.2z"/>
		<path class="st0" d="M338.95,594.95c3.12,0.26,6.27,0.37,9.37,0.82c5.08,0.74,10.13,1.7,15.46,2.61c-0.38,1.46-0.85,3.3-1.15,4.47
			c1.55,0.98,2.84,1.8,4.48,2.83c0.5-0.68,1.13-1.54,1.58-2.16c6.8,7.74,9.75,17.48,11.85,27.11c-2.79,0-5.4,0-8.25,0
			c3.43-7.48,3.02-8.05-5.69-8.44c-0.11,1-0.22,2.01-0.35,3.3c-0.73-0.69-1.34-1.27-2.3-2.19c1.62,6.19,3.56,12.03-1.1,17.49
			c-0.81-0.48-1.68-0.99-2.88-1.69c-0.45,2.35-0.85,4.48-1.26,6.61c-0.62-0.06-1.24-0.13-1.86-0.19c0-1.83,0-3.67,0-6.35
			c0.03,0.02-0.86-0.62-2.62-1.89c1.68-0.74,2.79-1.19,3.86-1.72c0.94-0.47,1.84-1.03,2.75-1.55c-0.76-0.56-1.55-1.08-2.27-1.7
			c-1.27-1.09-2.48-2.24-3.92-3.55c-0.1,0.23-0.36,0.8-0.74,1.66c-0.75-0.71-1.46-1.39-2.46-2.33c1.92-1.1,3.58-2.05,5.52-3.16
			c-3.34-3.25-7.28-7.06-11.21-10.88c-0.2,0.11-0.41,0.23-0.61,0.34c1,2.01,2,4.02,3.07,6.18c-1.77,1.95-3.57,3.94-4.73,5.22
			c-3.87-2.15-7.33-4.08-10.79-6c-0.28,0.27-0.55,0.55-0.83,0.82c1.23,2.52,3.2,5.44-0.41,6.99c-3.46,1.48-4.63-1.66-6-4.29
			c1.3-1.61,2.55-3.16,3.97-4.92c-1.84-3.72-8.47,0.78-9.37-5.48c-1.35,0.24-2.98,0.52-4.7,0.82c-0.92-1.89-1.87-3.84-3.03-6.22
			c2.02,0.93,3.61,1.67,5.19,2.4c0.3-0.31,0.6-0.61,0.9-0.92c-0.79-1.4-1.66-2.77-2.33-4.23c-0.22-0.47-0.04-1.67,0.18-1.74
			c1.13-0.37,2.35-0.47,4.4-0.81c-1.99-1.08-3.55-1.92-5.05-2.73c-0.08-1.46-0.17-3.07-0.31-5.43c2.31,1.78,4.6,3.54,6.97,5.36
			c-0.35-0.88-0.72-1.82-1.15-2.92c1.01,0,1.96,0,2.9,0c2.53,0.01,5.07-0.02,7.6,0.08c0.33,0.01,0.71,0.69,0.92,1.13
			c0.17,0.34-0.03,0.93,0.18,1.18c1.48,1.76,2.78,3.91,4.63,5.04c1.67,1.02,2.45-1,1.07-3.43c-0.46-0.8-1-1.56-1.55-2.39
			c0.85-1.18,1.62-2.24,2.38-3.3C339.29,594.81,338.95,594.95,338.95,594.95z"/>
		<path class="st0" d="M323.27,537.15c5.86,2.36,7.16,4.58,6.31,9.84c-3.64,0-7.41-0.83-10.61,0.23c-3.44,1.14-6.35,4.06-9.66,6.32
			c1.01,1.97,1.85,3.61,3.08,6.01c-2.13,0.23-4.07,0.98-5.69,0.52c-5.31-1.51-10.07,0.73-15.05,1.71
			c-3.63,0.71-7.37,0.83-11.06,1.22c-0.07-0.53-0.14-1.05-0.22-1.58c2.08-0.4,4.15-0.85,6.24-1.2c2.16-0.36,4.33-0.62,7.14-1.01
			c-0.69-1.3-1-2.28-1.61-2.98c-2.25-2.61-4.73-5.02-6.87-7.72c-3.63-4.59-2.16-9.3,3.55-10.39c4.7-0.9,9.56-0.85,14.35-1.27
			c1.77-0.15,3.52-0.54,5.29-0.64c0.93-0.05,1.91,0.16,2.8,0.47c2.25,0.78,4.42,2.03,6.72,2.4c1.71,0.28,3.58-0.51,5.38-0.82
			C323.33,537.88,323.3,537.52,323.27,537.15z M303.71,547.48c2.69,0,5.18,0,7.33,0c-0.12-2.6-0.21-4.6-0.32-6.96
			C308.56,542.66,306.51,544.7,303.71,547.48z M292.72,542.2c1.77,2.02,3.01,3.43,4.73,5.4
			C298.53,543.09,297.78,541.27,292.72,542.2z"/>
		<path class="st0" d="M291.04,474.24c-0.19-1.71-0.39-3.42-0.66-5.85c-3.61,1.39-7.25,2.81-11.48,4.44
			c-1.26-1.31-3.33-3.46-6.28-6.53c2.89-0.33,4.82-0.55,7.26-0.83c-1-1.21-1.76-2.13-3-3.64c2.29,0.52,3.85,0.87,5.41,1.22
			c-0.22,0.24-0.43,0.47-0.65,0.71c1.13,1.07,2.27,2.13,4.24,3.99c-0.14-5.18,1.88-7.45,5.18-7.78c1.49-0.15,4.14,1.05,4.47,2.21
			c0.55,1.91-0.35,4.28-0.73,7.09c-0.05-0.03,0.8,0.49,1.65,1.01c3.37-5.43,2.89-7.95-2.44-13.47c3.6,0.9,4.77,2.5,6,8.7
			c3.62-0.31,7.4-0.3,11.02-1.06c2.14-0.45,4.04-2.12,6.05-3.24c-0.95-1.79-1.9-3.58-2.57-4.85c3.6,1.25,4.76,3.11,5.63,7.65
			c0.75,3.93,1.73,7.96,3.5,11.46c1.07,2.11,3.84,3.28,6.08,5.06c-0.9,0.47-1.74,0.9-2.51,1.29c3.34,3.18,6.52,6.22,10.1,9.63
			c0.2,1.16,0.53,3.07,1.04,6.01c-3.02-2.31-5.66-3-7.18-6.99c-1.43-3.77-4.28-7.98-9.42-8.24c-2.08-0.1-2.07-0.23-2.72-5.76
			c-6.99,1.27-13.25-1.59-19.62-3.98c-0.98-0.37-2.21-0.43-3.22-0.17c-1.77,0.45-3.45,1.25-5.18,1.88
			C291.01,474.14,291.04,474.24,291.04,474.24z"/>
		<path class="st0" d="M297.71,516.83c0.79-0.53,1.57-1.05,2.36-1.58c-0.25,1.7-0.5,3.4-0.73,4.95c4.78,0.69,9.3,1.35,14.3,2.08
			c0.08-0.46,0.33-1.82,0.55-3.03c-2.75-0.21-5.42-1.26-7.27-0.39c-4.43,2.09-5.89-0.13-6.91-3.91c1.11-0.77,2.27-1.46,3.31-2.31
			c1.96-1.58,3.76-2.63,6.18-0.62c1.15,0.96,2.9,1.14,5.03,1.91c-0.76-4.26-1.36-7.58-2.05-11.46c1.19-0.08,3.08-0.82,4.17-0.14
			c1.67,1.04,1.09,2.77,0.42,4.85c-1.38,4.3,1.43,12.9,6.82,14.77c0.5-0.95,1.03-1.96,1.57-2.99c0.11,0.05,0.38,0.07,0.51,0.22
			c3.21,3.75,4.42,9.35,9.63,11.25c0.95,0.35,1.77,1.1,2.65,1.67c-1.13,0.66-2.39,2.04-3.37,1.85c-7.01-1.35-14.09-2.62-20.9-4.76
			c-3.51-1.1-6.52-3.94-9.98-6.14c-0.87,0.72-1.96,1.63-3.02,2.51c-2.11-1.51-4.12-2.94-6.39-4.56c0.98-1.32,2.1-2.82,3.22-4.32
			L297.71,516.83z"/>
		<path class="st0" d="M217.31,654.75c0.61,2.51,1.18,4.87,1.8,7.43c0.6-0.26,2.24-0.98,4.12-1.8c-0.67,2.82-1.19,5.02-1.75,7.38
			c-0.43-1.28-0.8-2.37-1.12-3.32c-1.3,3.95-2.61,7.9-3.98,12.04c-1.13-1.59-2.07-2.92-3.02-4.25c-0.28,0.14-0.57,0.28-0.85,0.41
			c0,1.11,0.29,2.35-0.08,3.3c-0.35,0.88-1.53,2.17-2.13,2.05c-4.57-0.87-4.73-0.95-8.65,0.77c-1.65-2.68-3.14-3.64-5.51-0.2
			c-1.29,1.87-4.11,2.58-7.14,4.34c0.85-4.69,1.25-7.97,5.82-7.43c0.56,0.07,1.77-0.91,1.77-1.39c-0.06-5.38,5.12-5.13,8.2-7.55
			c-0.56,1.48-1.12,2.96-1.68,4.44c0.18,0.14,0.36,0.29,0.54,0.43c0.58-0.89,1.6-1.74,1.66-2.66c0.31-5.27,4.61-7.26,7.52-10.36
			C213.91,657.23,215.27,656.37,217.31,654.75z"/>
		<path class="st0" d="M287.68,377.93c-0.63,1.06-1.28,2.18-2.26,3.84c-1.01-1.43-1.77-2.51-2.63-3.73
			c-0.85,0.47-1.71,0.94-2.07,1.14c-2.62-2.09-4.87-3.88-7.38-5.88c-0.7,0.67-1.62,1.54-3.48,3.32c-0.73-3.31-1.29-5.88-1.85-8.44
			c0.43-0.25,0.86-0.5,1.3-0.74c1.34,1.07,2.69,2.14,4.17,3.32c0.54-0.67,1.17-1.45,1.99-2.46c1.27,0.93,2.41,1.77,3.55,2.61
			c3.73-2.1,6.76-1.34,8.67,2.18c2.09-2.69,13.39-5.98,16-4.5c0.55,0.31,1.03,1.56,0.91,2.25c-0.6,3.31-7.17,9.77-10.35,9.62
			C292.08,380.35,289.99,378.87,287.68,377.93z"/>
		<path class="st0" d="M233.94,259.02c-3.43-3.61-4.09-8.54-6.16-12.69c-3.62-7.27,2.07-11.95,3.91-17.67
			c0.19-0.6,2.72-1.19,3.39-0.68c2.21,1.69,4.92,2.89,3.6,7.3c-1.1,3.67-0.13,7.99-0.34,12.01c-0.09,1.83-0.65,3.69-1.3,5.41
			C236.29,254.65,235.22,256.45,233.94,259.02z"/>
		<path class="st0" d="M312.67,375.22c1.41,8.29-1.3,14.73-6.44,20.22c-2.03,2.16-4.04,5.06-7.54,2.83c-2.41-1.54-3.35-7.14-1.3-9.9
			c1.42-1.92,3.65-4.13,5.72-4.39c4.02-0.5,5.85-2.98,7.58-6.11C311.17,376.98,311.89,376.24,312.67,375.22z"/>
		<path class="st0" d="M279.56,594.3c2.7-3.19,5.23-6.16,8.35-9.85c-0.01-0.08-0.3-1.27-0.29-2.47c0.01-1.77,0.22-3.55,0.34-5.32
			c1.55,0.41,3.1,0.81,5.16,1.36c1.62-3.74,3.43-7.94,5.25-12.14c0.42-0.04,0.84-0.07,1.26-0.11c-2.35,4.65,0.72,7.36,2.34,10.67
			c1.72,3.5-1.66,9.49-5.1,9.32c-0.97-0.05-1.97-0.78-2.83-1.39c-1.31-0.92-2.51-2.01-4.14-2.82c0.8,4.19,1.57,8.15-1.9,11.19
			C285.48,594.96,282.64,595.97,279.56,594.3z M294.42,582.62c2.29,2.53,3.95,0.37,5.24-1.23c1.6-1.98,1.32-4.13-0.23-6.37
			C297.61,577.77,296.19,579.94,294.42,582.62z"/>
		<path class="st0" d="M336.57,482.96c2.66-0.27,5.31-0.54,8.42-0.85c-2.19-3.3-4.46-6.53-6.51-9.91c-0.65-1.08-0.71-2.55-1.05-3.85
			c0,0-0.14,0.14-0.14,0.14c1.66,1.85,3.56,3.52,4.95,5.57c4.33,6.39,8.47,12.93,12.08,19.89c-2.56-1.07-5.12-2.15-7.91-3.32
			c-0.32,0.13-1.23,0.91-1.79,0.68c-3.83-1.54-5.9-5.02-8.01-8.41L336.57,482.96z"/>
		<path class="st0" d="M272.13,593.65c0.61-2.73,1.22-5.46,1.84-8.19c-0.34-0.16-0.68-0.32-1.02-0.49
			c-2.61,1.69-5.22,3.37-7.83,5.06c-0.37-0.45-0.73-0.9-1.1-1.35c2.47-2.51,4.81-5.19,7.44-7.5c3.73-3.28,4.65-5.85,2.43-9.81
			c-0.53-0.95-2.46-1-3.68-1.6c-0.86-0.42-1.61-1.08-2.4-1.63c0.89-0.24,2.13-1,2.63-0.63c3.58,2.56,7.32,5.03,10.33,8.24
			c0.99,1.06-0.03,4.2-0.16,6.93c-1.59-0.71-2.45-1.1-3.22-1.44c-1.48,0.84,1.82,5.02-2.79,3.3c0.92,3.77,0.92,7.01-2.53,9.02
			C272.05,593.53,272.13,593.65,272.13,593.65z"/>
		<path class="st0" d="M274.55,604.65c0.43-0.2,1.42-0.66,2.41-1.12c0.15,0.33,0.31,0.67,0.46,1c-1.07,0.56-2.1,1.38-3.23,1.64
			c-4.56,1.02-9.15,1.95-13.75,2.73c-2.25,0.38-4.57,0.45-6.85,0.41c-0.74-0.01-1.86-0.67-2.09-1.32c-0.22-0.61,0.26-1.92,0.83-2.35
			c5.68-4.26,12.33-4.37,18.91-4.36C272.2,601.28,273.16,603.18,274.55,604.65z"/>
		<path class="st0" d="M382.85,517.08c-4.38-3.86-8.76-7.73-13.53-11.94c1.79-0.73,3.42-1.01,4.54-1.94
			c1.58-1.32,2.8-3.12,4.17-4.71c-1.64-1.51-3.21-4.19-4.93-4.3c-3.53-0.24-4.68-1.86-5.37-5.05c-0.45-2.08-1.69-3.96-2.46-5.98
			c-0.38-1-0.48-2.12-0.7-3.19c0.31-0.1,0.63-0.2,0.94-0.3c0.67,1.67,1.36,3.34,2.02,5.02c1.66,4.23,2.53,9.09,8.36,9.48
			c1.07,0.07,2.67,1.73,2.94,2.92c1.49,6.65,2.65,13.39,3.93,20.1C382.75,517.19,382.85,517.08,382.85,517.08z"/>
		<path class="st0" d="M256.85,480.74c1.26,6.1-2.92,5.39-6.47,6.06c-0.23-1.58-1.1-3.73-0.53-5.3c0.32-0.87,3.08-0.67,4.69-1.14
			c1.3-0.38,2.86-0.71,3.72-1.64c2.11-2.28,4.04-1.37,5.2,0.5c0.74,1.19,0.82,4.09,0.02,4.81c-2.03,1.83-3.8,0.27-4.9-1.88
			c-0.24-0.48-0.13-1.15-0.19-1.73C257.88,480.53,257.37,480.64,256.85,480.74z"/>
		<path class="st0" d="M389.82,657.5c0.58,1.33,1.15,2.65,2.29,5.26c-2.99-1.14-4.99-1.89-7.37-2.8c-0.73,1.14-1.84,2.84-2.94,4.55
			c-0.23-0.09-0.46-0.18-0.68-0.27c0.38-1.2,0.75-2.4,1.13-3.6c-0.31,0.01-0.61,0.03-0.92,0.04c-0.05-1.14-0.38-2.38-0.07-3.4
			c0.35-1.17,1.44-2.09,1.92-3.24c1.52-3.63,2.94-3.98,6.63-1.45C389.81,654.22,389.82,655.86,389.82,657.5z"/>
		<path class="st0" d="M302.12,478.18c0.56,1.33,1.19,2.8,2.2,5.19c-6.18-2.2-6.29,4.2-9.35,6.06c-0.57-1.6-0.79-3.48-1.34-3.59
			c-3.69-0.75-1.74-3.28-1.29-4.87c0.19-0.68,2.15-0.85,3.33-1.16C297.67,479.27,299.7,478.79,302.12,478.18z"/>
		<path class="st0" d="M312.97,499.84c-1.55,0.82-3.5,1.86-5.44,2.88c-2-3.17-2-3.17-7.96-2.51c2.08-2.81,3.88-5.26,5.66-7.66
			C307.7,494.88,310.16,497.2,312.97,499.84z"/>
		<path class="st0" d="M281.24,480.59c1.65,1.45,3.3,2.9,4.95,4.35c-0.2,0.46-0.4,0.92-0.59,1.39c-1.91-0.26-3.82-0.51-5.23-0.7
			c-1.34,0.75-2.4,1.81-3.44,1.79c-1.06-0.02-2.66-0.9-2.98-1.81c-0.33-0.94,0.29-3.09,1.03-3.43c1.94-0.9,4.17-1.1,6.29-1.58
			L281.24,480.59z"/>
		<path class="st0" d="M403.71,644.01c-0.52,2.73-0.46,4.62-1.25,5.99c-0.99,1.74-2.59,3.14-4.13,4.43
			c-0.2,0.17-1.68-1.12-2.37-1.92c-0.3-0.35-0.3-1.31-0.05-1.77c1.46-2.7,1.5-2.67-1.35-3.08c-0.09-0.39-0.19-0.78-0.28-1.16
			C397.44,645.67,400.6,644.83,403.71,644.01z"/>
		<path class="st0" d="M305.43,578.84c5.28,1.58,5.28,1.58,7.55-4c0.29,0.12,0.58,0.25,0.87,0.37c-0.9,2.29-1.8,4.57-3.22,8.18
			c2.64-1.71,4.48-2.9,7.02-4.54c0.76,1.44,1.94,3.69,3.12,5.93c-0.19,0.22-0.38,0.45-0.58,0.67c-1.28-0.94-2.56-1.88-4.1-3
			c-0.86,0.68-1.79,1.58-2.85,2.23c-1.77,1.08-3.26,1.3-4.39-1.21C308.07,581.75,306.59,580.37,305.43,578.84z"/>
		<path class="st0" d="M336.62,482.92c-2.6,0.3-4.4-0.72-5.34-3.38c-1.8-5.13-3.67-10.23-5.48-15.35c-0.1-0.29,0.12-0.7,0.38-2.08
			c3.02,6.59,5.65,12.41,8.37,18.17c0.47,1,1.31,1.8,2,2.68C336.57,482.96,336.62,482.92,336.62,482.92z"/>
		<path class="st0" d="M262.23,511.53c-1.23,1.91-2.57,3.97,1.3,5.51c-3.6,0.7-6.11,1.18-8.66,1.68
			C254.79,509.77,255.97,508.61,262.23,511.53z"/>
		<path class="st0" d="M281.26,480.58c-0.93-0.72-1.86-1.45-2.63-2.05c2.75-5.39,9.48-7.46,12.4-4.32c0.01,0.02-0.01-0.08,0-0.05
			c-1.43,0.76-2.87,1.49-4.36,2.24c0.98,3,0,3.76-5.01,3.4c-0.11-0.01-0.31,0.05-0.33,0.12c-0.07,0.21-0.06,0.44-0.08,0.66
			C281.24,480.59,281.26,480.58,281.26,480.58z"/>
		<path class="st0" d="M287.44,697.22c2.6-2.59,4.42-4.39,6.23-6.2c0.83,1.52,2.62,3.34,2.29,4.5c-0.58,2.06-2.45,3.72-3.78,5.54
			C290.93,700.05,289.68,699.04,287.44,697.22z"/>
		<path class="st0" d="M297.8,516.7c-2.52,2.48-5.2,2.12-7.64,0.08c-0.83-0.69-1.68-2.58-1.34-3.3c0.52-1.08,2.02-2.12,3.22-2.27
			c2.89-0.38,5.3,2.23,5.67,5.62C297.71,516.83,297.8,516.7,297.8,516.7z"/>
		<path d="M241.36,461.19c-1.52,0.57-3.21,1.88-4.51,1.54c-2.53-0.68-4.83-2.29-7.23-3.52c0.36-1.24,0.73-2.47,1.1-3.69
			c3.57,1.93,7.14,3.87,10.71,5.8C241.44,461.31,241.36,461.19,241.36,461.19z"/>
		<path class="st0" d="M245.24,507.09c0.25-0.24,0.5-0.48,0.75-0.72c4.12-2.26,2.5,2.75,4.97,3.51c-2.86,1.49-6.63,1.52-4.13,6.5
			c-0.49-0.05-0.97-0.09-1.46-0.14c-1.15-1.7-2.31-3.4-3.46-5.09c-0.26-0.37-0.52-0.75-0.79-1.12
			C242.49,509.05,243.86,508.07,245.24,507.09z"/>
		<path class="st0" d="M263.46,691.7c1.44,7.28,0,10-4.85,9.79C257.6,696.94,258.36,693.28,263.46,691.7z"/>
		<path class="st0" d="M337.3,468.49c0,0,0.14-0.14,0.14-0.14c-2.31-2.58-4.8-5-6.87-7.77c-1.87-2.52-3.28-5.42-4.49-8.44
			C330.17,457.34,335.63,461.45,337.3,468.49z"/>
		<path class="st0" d="M265.48,691.96c3.73,0.64,7.45,1.28,11.18,1.93c0.2,0.37,0.41,0.75,0.61,1.12c-1.64,1.3-3.27,2.61-4.91,3.91
			c0.38-3.17-0.85-4.15-2.59-3.37c-2.92,1.3-3.45-0.97-4.8-2.12C265.14,692.93,265.31,692.44,265.48,691.96z"/>
		<path class="st0" d="M354.62,455.25c-0.16-0.08-0.23-0.14-0.23-0.19c-1.98-4.51-3.96-9.01-5.94-13.52
			c0.66,0.21,1.44,0.26,1.97,0.67c1.06,0.79,1.99,1.78,3.19,2.88c-1.8,3.35,1.09,6.43,2.74,9.02c1.46,2.3,0.4,3.93,1.07,6.25
			C354.4,459.35,353.81,457.68,354.62,455.25z"/>
		<path d="M300,514.95c1.02,3.78,2.48,5.99,6.91,3.91c1.85-0.87,4.52,0.18,7.27,0.39c-0.22,1.21-0.47,2.56-0.55,3.03
			c-5-0.73-9.53-1.38-14.3-2.08c0.23-1.54,0.48-3.25,0.73-4.95C300.1,515.23,300.08,515.14,300,514.95z"/>
		<path class="st0" d="M278.08,495.18c0.72-1.62,1.32-4.52,2.18-4.61c2.19-0.23,5.59-3.62,6.88,2.15c-2.5,1.12-5.06,2.26-7.62,3.41
			C279.04,495.81,278.56,495.49,278.08,495.18z"/>
		<path class="st0" d="M325.11,499.45c1.34,3.28,2.68,6.57,4.01,9.85c-0.16,0.16-0.33,0.31-0.49,0.47c-1-1.22-1.95-2.47-3-3.65
			c-0.89-1-1.99-1.81-2.78-2.88c-0.73-0.99-1.16-2.21-1.72-3.33c1.05-0.41,2.11-0.81,3.16-1.23
			C324.56,498.94,324.83,499.19,325.11,499.45z"/>
		<path class="st0" d="M296.58,385.11c-3.75,3.77-12.43,4.08-17.89,0C285.11,385.11,290.89,385.11,296.58,385.11z"/>
		<path class="st0" d="M256.58,705.38c2.11-0.32,4.24-0.58,6.33-1c0.88-0.18,1.73-0.64,2.52-1.11c1.45-0.85,2.86-1.8,4.67-2.96
			c-0.03,5.59-2.08,6.41-13.34,6.28C256.7,706.19,256.64,705.78,256.58,705.38z"/>
		<path class="st0" d="M338.95,594.95c0,0,0.35-0.13,0.35-0.14c-1.7-0.52-3.52-0.79-5.06-1.63c-1.29-0.71-2.24-2.08-2.68-2.52
			c-0.37-2.19-0.62-3.7-0.87-5.22c0.16-0.19,0.33-0.38,0.49-0.56c1.65,2.15,3.31,4.3,4.96,6.44
			C337.06,592.54,338.01,593.74,338.95,594.95z"/>
		<path class="st0" d="M193.59,289.92c6.01,5.92,3.48,12.47,1.31,18.17c-0.37-5.55-0.79-11.91-1.21-18.27
			C193.69,289.82,193.59,289.92,193.59,289.92z"/>
		<path class="st0" d="M327.71,493.66c-1.92,3.12-2.86,2.96-6.23-1.66c0.7-0.44,1.37-0.87,1.71-1.08c-0.68-1.24-1.34-2.46-2.01-3.68
			c1.07-0.23,2.65-1.02,3.11-0.57c0.91,0.9,1.17,2.5,1.76,3.78C326.54,491.5,327.12,492.52,327.71,493.66z"/>
		<path class="st0" d="M339.02,511.33c1.05,2.63,1.92,4.29,2.32,6.06c0.17,0.76-0.69,2.55-0.99,2.53c-1.96-0.14-3.89-0.65-6.86-1.24
			c2.11-1.24,3.16-1.86,4.43-2.61c-0.27-1.4-0.57-2.9-0.93-4.74C338.16,511.33,339.07,511.33,339.02,511.33z"/>
		<path class="st0" d="M386.05,561.57c4.2,2.02,7.33,3.46,10.38,5.07c0.73,0.39,1.17,1.37,1.74,2.08c-0.75,0.22-1.51,0.67-2.23,0.61
			C391.5,568.95,389.3,565.47,386.05,561.57z"/>
		<path class="st0" d="M256.59,696.98c-1.59,3.42-5.93,4.65-10.73,2.5c3.8-1.47,7-2.71,10.21-3.95
			C256.24,696.01,256.41,696.5,256.59,696.98z"/>
		<path class="st0" d="M239.69,480.05c1.87-0.99,3.67-2.19,5.64-2.85c0.78-0.26,1.93,0.66,2.92,1.04c-0.55,0.96-0.92,2.53-1.67,2.76
			c-2.05,0.63-4.25,0.69-6.39,0.97C240.01,481.33,239.85,480.69,239.69,480.05z"/>
		<path class="st0" d="M329.11,433.45c1.79,4.23,3.48,8.25,5.18,12.28c-0.25,0.37-0.51,0.74-0.76,1.11
			c-1.28-1.63-2.57-3.25-3.73-4.73c-0.15,0.33-0.55,1.23-0.94,2.12c-0.17-0.05-0.35-0.09-0.52-0.14
			C328.59,440.68,328.84,437.28,329.11,433.45z"/>
		<path class="st0" d="M272.05,593.53c-1.68,1.58-2.83,4.83-5.84,2.68c-1.06-0.76-1.46-2.54-1.73-5c2.54,0.8,5.08,1.61,7.63,2.42
			C272.13,593.65,272.05,593.53,272.05,593.53z"/>
		<path class="st0" d="M268.79,488.7c-0.99,0.85-2.13,2.61-3.08,2.5c-2.16-0.26-4.24-1.39-6.3-2.28c-0.17-0.07-0.15-1.35,0-1.4
			c0.88-0.33,1.88-0.75,2.74-0.59C264.15,487.29,266.09,487.96,268.79,488.7z"/>
		<path class="st0" d="M299.97,494.39c-1.83-0.24-2.92-0.39-3.76-0.5c-0.56,1.17-1.01,2.13-1.46,3.08
			c-1.24-0.87-2.49-1.74-3.87-2.71C296.81,490.89,296.81,490.89,299.97,494.39z"/>
		<path class="st0" d="M264.82,246.23c3.3-0.95,5.62-0.46,6.7,2.54c0.18,0.51,0.08,1.42-0.26,1.76c-0.37,0.38-1.42,0.64-1.71,0.38
			C267.9,249.45,266.38,247.81,264.82,246.23z"/>
		<path class="st0" d="M269.03,477.24c1.41-4.36,4.8-5.28,9.61-1.5C275.46,476.24,272.26,476.74,269.03,477.24z"/>
		<path class="st0" d="M325.11,499.45c-0.27-0.25-0.55-0.5-0.82-0.75c-1.34-0.86-2.69-1.73-4.04-2.59c0.18-0.37,0.35-0.74,0.53-1.11
			c3.09,1.21,6.17,2.43,9.26,3.64c-0.15,0.59-0.29,1.19-0.44,1.78C328.11,500.1,326.61,499.77,325.11,499.45z"/>
		<path class="st0" d="M141.91,524.87c-4.37-1.68-8.78,3.33-13.15-1.2c4.4,0,8.81,0,13.21,0
			C141.95,524.07,141.93,524.47,141.91,524.87z"/>
		<path class="st0" d="M170.94,460.3c0.68-2.02,4.2-2.76,6.84-0.75c-3.82,1.29-7.46,2.55-11.13,3.69c-0.18,0.05-0.66-0.99-1.18-1.8
			C167.28,461.06,168.81,460.74,170.94,460.3z"/>
		<path class="st0" d="M237.6,668.02c3.99-3.22,5.61,1.71,8.73,2.16C243.51,672.97,243.51,672.97,237.6,668.02z"/>
		<path class="st0" d="M234.2,655.86c1.69,1.55,2.53,2.32,3.63,3.31c-1.14,0.82-2.2,1.58-3.53,2.55c0.96,0.89,1.74,1.62,2.51,2.35
			c-0.21,0.37-0.42,0.74-0.63,1.11c-1.15-0.82-3.23-1.61-3.27-2.48C232.81,660.54,233.66,658.35,234.2,655.86z"/>
		<path class="st0" d="M305.57,606.18c1.38,0.4,2.66,0.43,3.49,1.09c1.07,0.85,1.77,2.2,2.64,3.34c-1.02-0.05-2.03-0.13-3.05-0.15
			C305.45,610.38,304.6,608.73,305.57,606.18z"/>
		<path class="st0" d="M389.82,657.5c0-1.64-0.01-3.28-0.01-4.92c1.02-0.04,2.03-0.07,3.05-0.11c-0.06,1.63-0.01,3.28-0.32,4.85
			C392.49,657.57,390.77,657.45,389.82,657.5z"/>
		<path class="st0" d="M261.16,688.93c-1.56,1.42-3.09,2.88-4.74,4.17c-0.12,0.09-1.11-1.05-1.7-1.62c1.59-1.5,3.18-3,4.77-4.51
			C260.04,687.62,260.6,688.27,261.16,688.93z"/>
		<path class="st0" d="M365.43,577.33c2.21,2.24,3.27,4.05,1.87,7.06c-0.6,1.3,0.52,3.47,0.79,4.85
			C365.97,587.67,365.12,584.48,365.43,577.33z"/>
		<path class="st0" d="M387.9,590.2c1.63,2.22,3.04,4.14,4.45,6.06c-0.17,0.19-0.34,0.38-0.51,0.57c-2.37-1.67-4.74-3.35-7.7-5.44
			C385.88,590.84,386.99,590.49,387.9,590.2z"/>
		<path class="st0" d="M332.77,541.83c0.55,2.44,1.18,4.87,1.58,7.34c0.07,0.42-0.86,1.02-1.32,1.54c-0.39-0.58-1.08-1.14-1.11-1.74
			c-0.13-2.23-0.05-4.47-0.05-6.71C332.17,542.11,332.47,541.97,332.77,541.83z"/>
		<path class="st0" d="M269.55,326.52c2.25,0,4.49,0,6.74,0c-2.23,3.03-4.56,2.17-6.89,1.16
			C269.45,327.3,269.5,326.91,269.55,326.52z"/>
		<path class="st0" d="M317.74,482.79c-0.79,0.34-1.77,1.16-2.33,0.92c-1.37-0.58-2.54-1.65-3.79-2.53c0.7-0.6,1.55-1.81,2.08-1.67
			c1.45,0.37,2.77,1.31,4.14,2.03C317.81,481.95,317.78,482.37,317.74,482.79z"/>
		<path class="st0" d="M228.35,670.28c-0.45-0.18-0.89-0.37-1.78-0.74c0.43,1.22,0.76,2.14,1.09,3.06
			c-0.26,0.19-0.53,0.38-0.79,0.57c-1.26-1.78-2.53-3.56-3.79-5.34c0.43-0.49,0.86-0.99,1.3-1.49c1.47,1.03,2.93,2.06,4.4,3.08
			C228.62,669.72,228.48,670,228.35,670.28z"/>
		<path class="st0" d="M389.13,583.58c2.53-0.83,3.61-1.18,4.99-1.64c0.61,1.49,1.23,3.01,1.85,4.53c-0.2,0.22-0.4,0.43-0.61,0.65
			C393.53,586.07,391.69,585.03,389.13,583.58z"/>
		<path class="st0" d="M305.17,510.06c-1.85,0.1-3.7,0.44-3.79,0.17c-0.56-1.78-0.74-3.68-1.04-5.55c0.42-0.15,0.84-0.29,1.26-0.44
			C302.63,505.92,303.66,507.6,305.17,510.06z"/>
		<path class="st0" d="M358.62,461.69c1.5,3.99,3,7.98,4.5,11.97c-0.3,0.13-0.59,0.27-0.89,0.4c-1.62-3.9-3.23-7.8-4.85-11.7
			C357.79,462.14,358.2,461.92,358.62,461.69z"/>
		<path class="st0" d="M356.59,470.31c-2.53-1.74-5.07-3.48-7.6-5.21c0.21-0.33,0.41-0.67,0.62-1c2.62,1.63,5.25,3.25,7.87,4.88
			C357.18,469.42,356.89,469.86,356.59,470.31z"/>
		<path class="st0" d="M371.98,640.27c-1.3,2.69-2.28,4.73-3.41,7.07c-0.45-1.73-0.92-3.53-1.45-5.56
			C368.7,641.28,370.09,640.85,371.98,640.27z"/>
		<path class="st0" d="M241.44,461.31c-3.57-1.93-7.14-3.87-10.71-5.8C236.03,453.92,238.39,458.3,241.44,461.31z"/>
		<path class="st0" d="M374.63,580.93c-0.61,3.17-1.12,5.84-1.58,8.24C370.67,586.87,371.02,583.22,374.63,580.93z"/>
		<path class="st0" d="M441.26,500.49c1.95,0.48,3.9,0.95,5.85,1.43c-0.12,0.55-0.24,1.1-0.36,1.66c-1.94-0.48-3.89-0.97-5.83-1.45
			C441.03,501.58,441.15,501.04,441.26,500.49z"/>
		<path d="M95.56,560.23c-1.42,4.84-2.77,9.44-4.26,14.53c-0.95,0.13-2.29,0.31-3.68,0.5C87.67,567.38,91.36,560.66,95.56,560.23z"
			/>
		<path d="M212.54,482.81c0.86,0.54,1.7,1.11,2.58,1.61c0.77,0.43,1.58,0.78,2.38,1.17c-0.89,0.55-1.8,1.05-2.66,1.65
			c-0.98,0.68-1.85,1.55-2.88,2.12c-1.63,0.9-3.36,1.61-5.3,1.81c1-0.71,1.99-1.43,2.93-2.1c-0.34-1.77-0.64-3.36-1.13-5.93
			c2.67,2.96,3.58,1.87,4.15-0.3C212.59,482.83,212.54,482.81,212.54,482.81z"/>
		<path d="M126.31,485.75c1.96,4.79-0.81,6.91-4.41,8.56c-0.33-0.22-0.66-0.43-0.99-0.65c1.84-2.6,3.68-5.2,5.52-7.8
			C126.43,485.86,126.31,485.75,126.31,485.75z"/>
		<path d="M228.29,493.57c1.01,0.96,2.02,1.92,3.02,2.88c-0.04,0.37-0.08,0.74-0.12,1.11c-2.75,0.17-5.5,0.33-8.25,0.5
			c-0.15-0.53-0.31-1.07-0.46-1.6c1.17-0.53,2.34-1.04,3.5-1.58c0.81-0.38,1.61-0.82,2.39-1.24
			C228.36,493.61,228.29,493.57,228.29,493.57z"/>
		<path d="M217.04,494.99c1.58,1.89,2.79,3.33,3.96,4.74c-1.65,1.12-3.31,2.25-5.34,3.62C216.09,500.76,216.52,498.15,217.04,494.99
			z"/>
		<path d="M56.22,654.71c-0.68-1.73-1.2-3.08-1.74-4.45c1.84-0.76,3.98-1.63,6.18-2.53C59.25,649.93,57.82,652.19,56.22,654.71z"/>
		<path d="M102.16,583.46c-0.23,1.84-0.45,3.68-0.84,6.78c-1.21-1.87-2.67-3.47-2.42-3.85c0.77-1.19,2.19-1.91,3.36-2.81
			C102.27,583.57,102.16,583.46,102.16,583.46z"/>
		<path class="st0" d="M326.54,317.18c1-1.97,1.74-4.2,3.13-5.79c0.56-0.64,2.57,0.1,3.92,0.21c-0.23,1.3-0.03,3.15-0.77,3.77
			c-1.53,1.27-3.56,1.89-5.39,2.77C327.13,317.82,326.84,317.5,326.54,317.18z"/>
		<path class="st0" d="M321.77,307.02c2.1-0.3,4.07-0.57,6.03-0.85C324.69,311.14,323.23,311.26,321.77,307.02z"/>
		<path d="M163,585.76c1.58,3.41,3.25,1.15,4.97,0.15c1.25-0.72,2.6-1.25,3.9-1.86c-0.1,1.37-0.35,2.76-0.25,4.11
			c0.07,0.99,0.62,1.94,0.95,2.9c0,0-0.14-0.22-0.14-0.22c0.45,1.91,0.9,3.82,1.35,5.72c-0.38,0.15-0.77,0.3-1.15,0.45
			c0.69,0.33,1.57,0.49,2.04,1.03c0.93,1.06,2.2,2.3,2.26,3.53c0.05,0.98-1.3,2.4-2.35,3.02c-3.91,2.31-7.93,4.42-11.95,6.52
			c-1.26,0.66-2.68,1.54-3.98,1.47c-3.41-0.17-6.8-0.8-10.69-1.32c1.37-2.25,2.38-3.92,3.4-5.59c-0.08-0.08-0.16-0.16-0.24-0.24
			c-1.22,1.36-2.43,2.72-4.6,5.15c-3.78-7.74-7.1-14.53-10.46-21.42c2.87-4.09,6.89-5.57,11.58-5.13
			c5.17,0.49,10.32,1.21,15.48,1.83C163.12,585.88,163,585.76,163,585.76z"/>
		<path d="M237.75,578.02c3.35-2.08,2.7-4.05,0.35-6.05c-3.28-2.79,0.31-6.06-0.29-9.12c-0.07-0.35,3.49-1.63,5.44-2.15
			c0.5-0.13,1.47,0.89,1.94,1.59c3.84,5.65,3.8,14.64-0.24,19.87c-0.52,0.68-2.51,1.01-3.13,0.53
			C240.32,581.52,239.22,579.78,237.75,578.02z"/>
		<path d="M222.04,549.53c8.32,3.65,10.2-0.88,8.68-8.18c0.71-0.18,1.43-0.36,2.11-0.53c2.04,5.75,3.71,11.44-2.02,16.49
			c-0.17-1.03-0.33-2.04-0.68-4.26c-1.64,2-2.56,3.37-3.72,4.45c-0.88,0.82-2.07,1.27-3.13,1.88c-0.41-1.31-1.04-2.6-1.19-3.94
			C221.89,553.62,222.04,551.76,222.04,549.53z"/>
		<path d="M172.43,590.85c0,0,0.14,0.22,0.14,0.22c0.65-2.9,1.31-5.81,2.06-9.14c1.29,3.79,2.69,7.91,4.1,12.03
			c-0.32,0.35-0.65,0.71-0.97,1.06C175.98,593.64,174.21,592.24,172.43,590.85z"/>
		<path d="M251.25,567.91c3.67,1.04,5.06,6.62,2.85,11.72c-2.18-0.51-3.65-0.88-2.56-4.18
			C252.27,573.24,251.41,570.46,251.25,567.91z"/>
		<path d="M200.34,559.69c0,3.68,0,6.79,0,9.89c0.35,0.05,0.7,0.11,1.06,0.16c-0.54,0.52-1.01,1.21-1.65,1.5
			c-0.5,0.23-1.21-0.02-1.52-0.03c-0.42-3.42-1.02-6.56-1.14-9.72C196.96,557.65,199.27,559.38,200.34,559.69z"/>
		<path d="M216.99,572.67c-2.12-0.34-4.24-0.68-6.66-1.07C213.73,567.36,214.52,567.41,216.99,572.67z"/>
		<path d="M136.04,550.2c-1.72,0.45-3.42,1.07-5.16,1.27c-0.64,0.07-1.38-0.85-2.07-1.32c0.6-0.72,1.24-2.06,1.81-2.03
			c1.87,0.1,3.71,0.7,5.56,1.11C136.14,549.55,136.09,549.88,136.04,550.2z"/>
		<path d="M303.71,547.48c2.79-2.77,4.85-4.81,7.01-6.96c0.11,2.36,0.2,4.36,0.32,6.96C308.89,547.48,306.41,547.48,303.71,547.48z"
			/>
		<path d="M292.72,542.2c5.06-0.92,5.81,0.9,4.73,5.4C295.73,545.63,294.49,544.22,292.72,542.2z"/>
		<path d="M294.42,582.62c1.77-2.68,3.19-4.85,5.01-7.6c1.56,2.24,1.84,4.39,0.23,6.37C298.37,582.99,296.71,585.15,294.42,582.62z"
			/>
	</g>
</g>
</svg>
